<svg width="60" height="60" viewBox="0 0 60 60" fill="none" xmlns="http://www.w3.org/2000/svg">
<path fill-rule="evenodd" clip-rule="evenodd" d="M47.5 55H52.5V25.1725C49.6 23.29 46.2125 21.4 42.9625 20.0425C43.785 18.6825 44.3975 17.07 44.705 15.35C49.2575 17.225 53.4525 19.7325 57.5 22.5V55H60V60H0V55H2.5V22.5C6.5375 19.79 10.745 17.3 15.305 15.425C15.6475 17.085 16.2725 18.6575 17.125 20.0825C13.725 21.49 10.59 23.25 7.5275 25.1825L7.5 25.2V55H12.5V42.5H47.5V55ZM17.5 57.5H25V47.5H17.5V57.5ZM27.5 57.5H32.5V47.5H27.5V57.5ZM35 57.5H42.5V47.5H35V57.5ZM12.5 40H17.5V35H12.5V40ZM22.5 40H27.5V35H22.5V40ZM32.5 40H37.5V35H32.5V40ZM42.5 40H47.5V35H42.5V40ZM12.5 32.5H17.5V27.5H12.5V32.5ZM22.5 32.5H27.5V27.5H22.5V32.5ZM32.5 32.5H37.5V27.5H32.5V32.5ZM42.5 32.5H47.5V27.5H42.5V32.5ZM30 0C36.9 0 42.5 5.6 42.5 12.5C42.5 19.4 36.9 25 30 25C23.1 25 17.5 19.4 17.5 12.5C17.5 5.6 23.1 0 30 0ZM32.5 10V5H27.5V10H22.5V15H27.5V20H32.5V15H37.5V10H32.5Z" fill="#E74C3C"/>
</svg>
