<svg width="21" height="21" viewBox="0 0 21 21" fill="none" xmlns="http://www.w3.org/2000/svg">
<path fill-rule="evenodd" clip-rule="evenodd" d="M4.2 9.1C5.83333 12.3667 8.63333 15.05 11.9 16.8L14.4667 14.2333C14.8167 13.8833 15.2833 13.7667 15.6333 14C16.9167 14.4667 18.3167 14.7 19.8333 14.7C20.5333 14.7 21 15.1667 21 15.8667V19.8333C21 20.5333 20.5333 21 19.8333 21C8.86667 21 0 12.1333 0 1.16667C0 0.466667 0.466667 0 1.16667 0H5.25C5.95 0 6.41667 0.466667 6.41667 1.16667C6.41667 2.56667 6.65 3.96667 7.11667 5.36667C7.23333 5.71667 7.11667 6.18333 6.88333 6.53333L4.2 9.1Z" fill="white"/>
</svg>
