<svg width="79" height="79" viewBox="0 0 79 79" fill="none" xmlns="http://www.w3.org/2000/svg">
<path d="M58.8951 34.8557C58.8951 19.7963 50.7945 14.6736 43.2186 13.5318C43.2186 13.4547 43.234 13.3775 43.234 13.285C43.234 11.3871 41.5521 9.875 39.5 9.875C37.4479 9.875 35.8277 11.3871 35.8277 13.285C35.8277 13.3775 35.8277 13.4547 35.8432 13.5318C28.2518 14.6891 20.1049 19.8271 20.1049 34.8865C20.1049 52.4455 15.7383 54.3279 9.875 59.2654H69.125C63.2926 54.3125 58.8951 52.4146 58.8951 34.8557Z" fill="#E74C3C"/>
<path d="M39.5309 69.125C43.666 69.125 47.0605 66.0545 47.508 62.4902H31.5537C31.9857 66.0545 35.3957 69.125 39.5309 69.125Z" fill="#E74C3C"/>
</svg>
