<svg width="53" height="60" viewBox="0 0 53 60" fill="none" xmlns="http://www.w3.org/2000/svg">
<path fill-rule="evenodd" clip-rule="evenodd" d="M31.4688 4.61554L31.4686 6.70777C40.9426 8.80001 46.3751 16.7079 46.3751 26.1537V41.5382L53 47.6921V50.7689L0 50.7691V47.6921L6.62493 41.5384V26.1539C6.62493 16.6769 12.0243 8.80001 21.5312 6.70777V4.61554C21.5312 2.0615 23.7507 0 26.5001 0C29.2493 0 31.4688 2.06168 31.4688 4.61554ZM19.8419 53.8461H33.0919C33.0919 54.7077 32.9263 55.5076 32.5952 56.2461C31.7338 58.0922 29.9783 59.446 27.8252 59.8769C27.3946 59.9691 26.964 59.9998 26.5001 60C22.8231 60 19.8752 57.2304 19.8419 53.8461Z" fill="#E74C3C"/>
</svg>
