<svg width="60" height="60" viewBox="0 0 60 60" fill="none" xmlns="http://www.w3.org/2000/svg">
<path d="M58.75 17.5C59.44 17.5 60 18.06 60 18.75V20.0275C60 22.01 57.685 22.5 55.96 22.5L53.245 17.5H58.75ZM55.1475 26.265C56.745 29.23 57.5125 31.895 57.5125 35.43C57.5125 38.855 56.52 41.7625 55 45.3825V50C55 51.38 53.88 52.5 52.5 52.5H48.75C47.37 52.5 46.25 51.38 46.25 50V47.5H13.75V50C13.75 51.38 12.63 52.5 11.25 52.5H7.5C6.12 52.5 5 51.38 5 50V45.3825C3.48 41.7625 2.4875 38.855 2.4875 35.43C2.4875 31.895 3.255 29.23 4.8525 26.265C6.925 22.4225 9.48 17.6325 12.1775 13.135C14.2475 9.68 15.3325 8.8675 17.8725 8.4125C21.7025 7.725 25.1675 7.5 30 7.5C34.8325 7.5 38.2975 7.725 42.1275 8.4125C44.6675 8.8675 45.7525 9.68 47.8225 13.135C50.52 17.6325 53.075 22.4225 55.1475 26.265ZM15 33.75C15 31.68 13.32 30 11.25 30C9.18 30 7.5 31.68 7.5 33.75C7.5 35.82 9.18 37.5 11.25 37.5C13.32 37.5 15 35.82 15 33.75ZM40 36.25C40 35.56 39.44 35 38.75 35H21.25C20.56 35 20 35.56 20 36.25C20 36.94 20.56 37.5 21.25 37.5H38.75C39.44 37.5 40 36.94 40 36.25ZM47.3525 22.4325C47.3525 22.4325 45.5025 17.8675 43.275 14.5775C42.77 13.8325 41.9875 13.3225 41.1025 13.1625C37.325 12.4825 34.015 12.265 30 12.265C25.985 12.265 22.675 12.4825 18.8975 13.1625C18.0125 13.32 17.23 13.83 16.725 14.5775C14.4975 17.865 12.6475 22.4325 12.6475 22.4325C16.7475 23.215 23.42 23.675 30 23.675C36.58 23.675 43.2525 23.215 47.3525 22.4325ZM52.5 33.75C52.5 31.68 50.82 30 48.75 30C46.68 30 45 31.68 45 33.75C45 35.82 46.68 37.5 48.75 37.5C50.82 37.5 52.5 35.82 52.5 33.75ZM6.755 17.5H1.25C0.56 17.5 0 18.06 0 18.75V20.0275C0 22.01 2.315 22.5 4.04 22.5L6.755 17.5Z" fill="#E74C3C"/>
</svg>
