<svg width="66" height="66" viewBox="0 0 66 66" fill="none" xmlns="http://www.w3.org/2000/svg">
<path fill-rule="evenodd" clip-rule="evenodd" d="M52.25 60.5H57.75V27.6898C54.56 25.619 50.8337 23.54 47.2587 22.0468C48.1635 20.5508 48.8372 18.777 49.1755 16.885C54.1833 18.9475 58.7977 21.7057 63.25 24.75V60.5H66V66H0V60.5H2.75V24.75C7.19125 21.769 11.8195 19.03 16.8355 16.9675C17.2122 18.7935 17.8997 20.5233 18.8375 22.0907C15.0975 23.639 11.649 25.575 8.28025 27.7008L8.25 27.72V60.5H13.75V46.75H52.25V60.5ZM19.25 63.25H27.5V52.25H19.25V63.25ZM30.25 63.25H35.75V52.25H30.25V63.25ZM38.5 63.25H46.75V52.25H38.5V63.25ZM13.75 44H19.25V38.5H13.75V44ZM24.75 44H30.25V38.5H24.75V44ZM35.75 44H41.25V38.5H35.75V44ZM46.75 44H52.25V38.5H46.75V44ZM13.75 35.75H19.25V30.25H13.75V35.75ZM24.75 35.75H30.25V30.25H24.75V35.75ZM35.75 35.75H41.25V30.25H35.75V35.75ZM46.75 35.75H52.25V30.25H46.75V35.75ZM33 0C40.59 0 46.75 6.16 46.75 13.75C46.75 21.34 40.59 27.5 33 27.5C25.41 27.5 19.25 21.34 19.25 13.75C19.25 6.16 25.41 0 33 0ZM35.75 11V5.5H30.25V11H24.75V16.5H30.25V22H35.75V16.5H41.25V11H35.75Z" fill="#E74C3C"/>
</svg>
