<svg width="710" height="503" viewBox="0 0 710 503" fill="none" xmlns="http://www.w3.org/2000/svg">
<g clip-path="url(#clip0)">
<path opacity="0.1" d="M236.046 502.717C270.622 502.717 298.652 498.215 298.652 492.66C298.652 487.106 270.622 482.603 236.046 482.603C201.469 482.603 173.439 487.106 173.439 492.66C173.439 498.215 201.469 502.717 236.046 502.717Z" fill="#E74C3C"/>
<path opacity="0.1" d="M576.364 503C619.51 503 654.487 498.497 654.487 492.943C654.487 487.389 619.51 482.886 576.364 482.886C533.218 482.886 498.241 487.389 498.241 492.943C498.241 498.497 533.218 503 576.364 503Z" fill="#E74C3C"/>
<path opacity="0.1" d="M8.89233 217.332H74.1007V306.225H13.6662C13.5056 307.138 13.3514 308.056 13.1843 308.975H74.1007V380.665C73.9915 380.633 73.8951 380.595 73.7923 380.556C72.0704 379.875 70.3613 379.155 68.6522 378.384L67.56 377.889C65.8466 377.08 64.1333 376.223 62.4199 375.319C61.8224 375.004 61.2248 374.676 60.6337 374.342C51.1219 369.013 42.4809 362.26 35.0104 354.318C34.7919 354.106 34.5863 353.881 34.3679 353.676C33.327 352.545 32.3054 351.401 31.316 350.231L30.2237 348.946C29.0543 347.513 27.9235 346.041 26.8248 344.551C26.6642 344.332 26.51 344.114 26.3429 343.908C21.8746 337.711 18.1644 331.002 15.2917 323.923C15.2018 323.711 15.1247 323.479 15.0412 323.28C14.1588 321.009 13.3771 318.717 12.696 316.404C12.4004 315.434 12.1177 314.476 11.8736 313.467C11.7836 313.172 11.7065 312.883 11.6358 312.593C7.98639 298.347 7.55591 283.547 7.55591 268.851C7.55591 267.135 7.55591 265.413 7.55591 263.71C7.55591 257.765 7.62658 251.783 7.72939 245.806C7.72939 244.258 7.79364 242.715 7.82576 241.16C7.91571 237.215 8.04422 233.269 8.21127 229.323C8.24982 228.225 8.30122 227.132 8.35905 226.04C8.35905 225.41 8.39117 224.78 8.45542 224.15C8.60963 221.863 8.73813 219.594 8.89233 217.332Z" fill="#E74C3C"/>
<path opacity="0.1" d="M74.1008 118.357H38.3322C44.1466 109.255 50.4995 100.508 57.357 92.1638C62.6705 85.6348 68.2796 79.2729 74.1008 73.1424V118.357Z" fill="#E74C3C"/>
<path opacity="0.1" d="M74.1008 121.107V214.582H9.09796C9.09796 214.312 9.14294 214.036 9.16221 213.766C9.22004 213.027 9.27786 212.288 9.34211 211.555C9.41279 210.694 9.48989 209.826 9.57342 208.985C9.65694 208.143 9.7469 207.115 9.84327 206.183C9.93965 205.251 10.0296 204.306 10.1388 203.375C10.2481 202.443 10.3444 201.511 10.4601 200.586C10.5757 199.66 10.6785 198.722 10.8006 197.797C10.897 197.026 10.9998 196.261 11.1026 195.49C11.2504 194.404 11.4046 193.311 11.5716 192.232C11.5716 192.071 11.6166 191.904 11.6423 191.75C12.815 183.847 14.4129 176.012 16.429 168.281C18.5394 160.172 21.2343 152.225 24.4925 144.505C27.9554 136.428 32.01 128.618 36.6231 121.139L74.1008 121.107Z" fill="#E74C3C"/>
<path opacity="0.1" d="M89.6688 217.326V306.225H228.946V217.326H89.6688ZM89.6688 308.969V385.312C90.4655 385.479 91.2558 385.639 92.0396 385.774C93.1062 385.98 94.1663 386.166 95.2522 386.327C95.4578 386.359 95.6698 386.391 95.8947 386.41C96.3187 386.481 96.7557 386.539 97.1797 386.597C98.2527 386.745 99.3193 386.867 100.392 386.963C100.9 387.015 101.414 387.06 101.928 387.098L103.168 387.194C103.843 387.246 104.511 387.284 105.173 387.304C105.584 387.304 105.995 387.342 106.419 387.355C106.74 387.355 107.062 387.355 107.396 387.355C107.73 387.355 108.205 387.355 108.61 387.355C109.163 387.355 109.715 387.355 110.261 387.355H111C111.553 387.355 112.105 387.355 112.651 387.304H112.69C113.069 387.304 113.455 387.304 113.84 387.252C113.947 387.259 114.054 387.259 114.161 387.252C114.483 387.252 114.804 387.252 115.112 387.207H115.337L117.489 387.04C118.196 386.976 118.909 386.892 119.629 386.815L121.094 386.642C127.054 385.807 132.947 384.553 138.731 382.889C151.722 379.265 164.431 374.194 177.416 370.48C194.205 365.693 212.755 363.341 228.978 369.195V308.969H89.6688ZM228.946 118.357V0.00641986C213.697 -0.158812 198.49 1.62496 183.694 5.31442C148.426 14.1761 116.783 33.3967 89.6688 57.9445V118.35H96.6593V121.094H89.6688V214.582H228.946V121.101H125.36V118.357H228.946ZM407.84 78.3797C399.115 78.0712 390.441 75.308 382.596 71.041C367.593 62.8798 355.61 50.2781 342.22 39.6429C314.4 17.492 279.897 4.12558 244.501 0.809688V118.357H443.326L443.821 117.836L407.84 78.3797ZM425.952 75.1666L445.157 96.2444V69.6401C438.726 70.437 433.091 72.3327 425.978 75.1409L425.952 75.1666ZM445.157 404.269V308.969H404.236C404.126 308.564 404.017 308.153 403.889 307.742C404.011 308.153 404.114 308.564 404.229 308.969H244.527V377.889C246.043 379.014 247.54 380.196 249.024 381.398C250.624 382.683 252.205 384.039 253.792 385.369L255.392 386.693C256.156 387.336 256.927 387.978 257.705 388.583C259.247 389.833 260.804 391.067 262.376 392.284C263.153 392.927 263.95 393.505 264.74 394.109C277.286 403.703 290.521 412.361 304.338 420.013C307.435 421.726 310.56 423.399 313.712 425.032C315.813 426.105 317.927 427.171 320.047 428.206C323.234 429.761 326.447 431.261 329.685 432.704C359.54 446.108 391.11 455.306 423.492 460.035C430.683 461.097 437.903 461.933 445.151 462.541V404.262H445.793L445.157 404.269ZM244.527 121.101V214.582H445.183V121.101H244.527ZM244.527 217.326V306.225H445.183V217.326H244.527ZM460.757 69.5245V99.2004L485.269 72.3005C477.148 70.9896 468.977 70.0535 460.757 69.4923V69.5245ZM460.757 217.358V306.225H655.92V217.326L460.757 217.358ZM655.207 411.325L655.894 308.969H460.757V463.563C473.328 464.091 485.918 463.941 498.473 463.113H498.691C504.688 462.736 510.657 462.188 516.598 461.468H516.733C548.428 457.778 579.42 449.507 608.74 436.914L655.207 411.325ZM693.552 231.965C692.819 230.236 692.055 228.52 691.277 226.824C689.825 223.611 688.29 220.487 686.709 217.364H671.481V306.225H709.981C709.961 281.06 703.594 255.356 693.571 231.932L693.552 231.965ZM671.481 309.001V397.039C682.327 386.642 691.489 374.747 698.088 361.149C706.023 344.775 709.653 327.046 709.949 308.988L671.481 309.001ZM671.481 191.454V214.588H685.283C681.108 206.624 676.507 198.891 671.501 191.422L671.481 191.454ZM539.124 86.965C538.109 86.5794 537.094 86.1874 536.072 85.8083C525.298 81.8288 514.288 78.5194 503.105 75.8992L465.595 117.071L464.876 117.836L465.358 118.363H598.858C580.266 105.563 560.221 95.0122 539.144 86.9329L539.124 86.965ZM602.771 121.133H463.494L460.757 123.639V214.582H484.749H484.787H655.946V170.531C640.463 151.802 622.592 135.184 602.791 121.101L602.771 121.133Z" fill="#E74C3C"/>
<path opacity="0.1" d="M74.1008 168.256V214.582H9.09796C9.09796 214.312 9.14294 214.036 9.16221 213.766C9.22004 213.027 9.27786 212.288 9.34211 211.555C9.41279 210.694 9.48989 209.826 9.57342 208.985C9.65694 208.143 9.7469 207.115 9.84327 206.183C9.93965 205.251 10.0296 204.306 10.1388 203.375C10.2481 202.443 10.3444 201.511 10.4601 200.586C10.5757 199.66 10.6785 198.722 10.8006 197.797C10.897 197.026 10.9998 196.261 11.1026 195.49C11.2504 194.404 11.4046 193.311 11.5716 192.232C11.5716 192.071 11.6166 191.904 11.6423 191.75C12.815 183.847 14.4129 176.012 16.429 168.281L74.1008 168.256Z" fill="#E74C3C"/>
<path opacity="0.1" d="M8.89233 217.332H74.1007V306.225H13.6662C13.5056 307.138 13.3514 308.056 13.1843 308.975H74.1007V380.665C73.9915 380.633 73.8951 380.595 73.7923 380.556C72.0704 379.875 70.3613 379.155 68.6522 378.384L67.56 377.889C65.8466 377.08 64.1333 376.223 62.4199 375.319C61.8224 375.004 61.2248 374.676 60.6337 374.342C51.1219 369.013 42.4809 362.26 35.0104 354.318C34.7919 354.106 34.5863 353.881 34.3679 353.676C33.327 352.545 32.3054 351.401 31.316 350.231L30.2237 348.946C29.0543 347.513 27.9235 346.041 26.8248 344.551C26.6642 344.332 26.51 344.114 26.3429 343.908C21.8746 337.711 18.1644 331.002 15.2917 323.923C15.2018 323.711 15.1247 323.479 15.0412 323.28C14.1588 321.009 13.3771 318.717 12.696 316.404C12.4004 315.434 12.1177 314.476 11.8736 313.467C11.7836 313.172 11.7065 312.883 11.6358 312.593C7.98639 298.347 7.55591 283.547 7.55591 268.851C7.55591 267.135 7.55591 265.413 7.55591 263.71C7.55591 257.765 7.62658 251.783 7.72939 245.806C7.72939 244.258 7.79364 242.715 7.82576 241.16C7.91571 237.215 8.04422 233.269 8.21127 229.323C8.24982 228.225 8.30122 227.132 8.35905 226.04C8.35905 225.41 8.39117 224.78 8.45542 224.15C8.60963 221.863 8.73813 219.594 8.89233 217.332Z" fill="#E74C3C"/>
<path opacity="0.1" d="M138.699 134.486V214.582H89.6688V134.486H96.6593V107.368H125.354V134.486H138.699Z" fill="#E74C3C"/>
<path opacity="0.1" d="M138.699 217.326H89.6752V306.219H138.699V217.326Z" fill="#E74C3C"/>
<path opacity="0.1" d="M89.6688 308.975H138.699V382.876C132.915 384.538 127.022 385.79 121.062 386.623L119.597 386.802C118.877 386.886 118.164 386.957 117.457 387.027C116.751 387.098 116.018 387.149 115.305 387.194H115.08C114.772 387.194 114.438 387.233 114.136 387.239H113.808C113.422 387.239 113.037 387.278 112.651 387.291C112.105 387.323 111.559 387.329 111 387.336C110.762 387.336 110.538 387.336 110.3 387.336C109.747 387.336 109.201 387.336 108.649 387.336H107.434C107.106 387.336 106.792 387.336 106.451 387.336L105.211 387.291C104.569 387.291 103.875 387.22 103.206 387.175L101.973 387.085L100.437 386.944C99.3578 386.847 98.2848 386.725 97.2247 386.578L95.9397 386.398L95.2972 386.308C94.2242 386.141 93.164 385.961 92.0846 385.755C91.2943 385.62 90.5104 385.453 89.7137 385.292L89.6688 308.975Z" fill="#E74C3C"/>
<path opacity="0.1" d="M445.183 125.027H404.756V214.575H445.183V125.027Z" fill="#E74C3C"/>
<path opacity="0.1" d="M445.189 217.326V306.225H244.527V267.88H351.408V290.5H404.756V217.326H445.189Z" fill="#E74C3C"/>
<path opacity="0.1" d="M445.825 404.288H445.183V462.605C437.944 461.993 430.726 461.159 423.53 460.106C391.132 455.362 359.55 446.144 329.685 432.717C321.063 428.836 312.616 424.599 304.344 420.006C290.528 412.351 277.291 403.693 264.74 394.103C261.588 391.686 258.476 389.214 255.404 386.687C253.278 384.932 251.164 383.133 249.024 381.385C247.54 380.184 246.043 379.001 244.527 377.87V308.975H404.223C404.114 308.564 404.004 308.153 403.889 307.748C404.011 308.153 404.126 308.564 404.236 308.975H445.183V404.249C445.401 404.256 445.613 404.275 445.825 404.288Z" fill="#E74C3C"/>
<path opacity="0.1" d="M550.619 118.357H524.276V110.17H536.085V85.7826C537.109 86.1553 538.128 86.5387 539.144 86.9329V110.17H550.619V118.357Z" fill="#E74C3C"/>
<path opacity="0.1" d="M614.086 214.582H484.761C484.761 214.582 484.761 214.582 484.806 214.614L484.749 214.582H460.757V125.033H467.555V191.223H498.62V152.023H524.282V121.107H550.625V152.049H576.287V191.248H614.086V214.582Z" fill="#E74C3C"/>
<path opacity="0.1" d="M460.757 217.326V306.225H614.086V217.326H460.757ZM655.708 410.868L655.92 340.502H614.086V309.014H460.757V463.563C473.328 464.091 485.918 463.941 498.473 463.113H498.691C504.688 462.736 510.657 462.188 516.598 461.468H516.733C548.428 457.778 579.42 449.507 608.74 436.914" fill="#E74C3C"/>
<path opacity="0.1" d="M674.206 308.975H709.974C709.659 327.027 706.036 344.756 698.107 361.13C691.508 374.734 682.34 386.629 671.507 397.02V340.47H674.206V308.975Z" fill="#E74C3C"/>
<path opacity="0.1" d="M709.994 306.225H674.206V231.932H693.571C703.594 255.356 709.961 281.06 709.994 306.225Z" fill="#E74C3C"/>
<path opacity="0.1" d="M445.189 149.922H423.53V177.998H445.189V149.922Z" fill="#E74C3C"/>
<path opacity="0.1" d="M445.189 208.117H423.53V214.582H445.189V208.117Z" fill="#E74C3C"/>
<path opacity="0.1" d="M445.189 217.326H423.53V236.187H445.189V217.326Z" fill="#E74C3C"/>
<path opacity="0.1" d="M445.189 266.312H423.53V294.388H445.189V266.312Z" fill="#E74C3C"/>
<path opacity="0.1" d="M445.189 324.507H423.53V352.583H445.189V324.507Z" fill="#E74C3C"/>
<path opacity="0.1" d="M445.183 404.249C445.401 404.249 445.613 404.249 445.825 404.288H445.183V410.811H423.53V382.703H445.183V404.249Z" fill="#E74C3C"/>
<path opacity="0.1" d="M445.183 440.885V462.573C437.944 461.961 430.726 461.127 423.53 460.073V440.885H445.183Z" fill="#E74C3C"/>
<path opacity="0.1" d="M337.35 304.162H244.527V306.225H337.35V304.162Z" fill="#E74C3C"/>
<path opacity="0.1" d="M337.35 308.969H244.527V316.873H337.35V308.969Z" fill="#E74C3C"/>
<path opacity="0.1" d="M337.35 342.783H244.527V355.494H337.35V342.783Z" fill="#E74C3C"/>
<path opacity="0.1" d="M337.344 381.405V394.115H264.74C261.587 391.708 258.473 389.236 255.398 386.7C253.271 384.945 251.164 383.146 249.018 381.405H337.344Z" fill="#E74C3C"/>
<path opacity="0.1" d="M337.344 420.019V432.717H329.679C321.065 428.832 312.62 424.592 304.344 420L337.344 420.019Z" fill="#E74C3C"/>
<path opacity="0.1" d="M516.752 225.943H498.479V244.219H516.752V225.943Z" fill="#E74C3C"/>
<path opacity="0.1" d="M121.107 140.79H102.834V159.066H121.107V140.79Z" fill="#E74C3C"/>
<path opacity="0.1" d="M121.107 183.242H102.834V201.517H121.107V183.242Z" fill="#E74C3C"/>
<path opacity="0.1" d="M121.107 225.693H102.834V243.969H121.107V225.693Z" fill="#E74C3C"/>
<path opacity="0.1" d="M121.107 268.137H102.834V286.413H121.107V268.137Z" fill="#E74C3C"/>
<path opacity="0.1" d="M121.107 310.588H102.834V328.864H121.107V310.588Z" fill="#E74C3C"/>
<path opacity="0.1" d="M121.107 353.04H102.834V371.315H121.107V353.04Z" fill="#E74C3C"/>
<path opacity="0.1" d="M586.509 225.943H568.236V244.219H586.509V225.943Z" fill="#E74C3C"/>
<path opacity="0.1" d="M516.752 271.023H498.479V289.299H516.752V271.023Z" fill="#E74C3C"/>
<path opacity="0.1" d="M586.509 271.023H568.236V289.299H586.509V271.023Z" fill="#E74C3C"/>
<path opacity="0.1" d="M516.752 316.096H498.479V334.372H516.752V316.096Z" fill="#E74C3C"/>
<path opacity="0.1" d="M586.509 316.096H568.236V334.372H586.509V316.096Z" fill="#E74C3C"/>
<path opacity="0.1" d="M516.752 361.175H498.479V379.451H516.752V361.175Z" fill="#E74C3C"/>
<path opacity="0.1" d="M586.509 361.175H568.236V379.451H586.509V361.175Z" fill="#E74C3C"/>
<path opacity="0.1" d="M516.752 406.254H498.479V424.53H516.752V406.254Z" fill="#E74C3C"/>
<path opacity="0.1" d="M586.509 406.254H568.236V424.53H586.509V406.254Z" fill="#E74C3C"/>
<path opacity="0.1" d="M498.479 463.113V451.327H516.746V461.436L498.479 463.113Z" fill="#E74C3C"/>
<path opacity="0.1" d="M11.5652 191.737V202.192H74.1007V191.737H11.5652ZM17.7975 201.537H12.696V192.379H17.8361L17.7975 201.537ZM24.0235 201.537H18.8834V192.379H24.0235V201.537ZM30.2365 201.537H25.0965V192.379H30.2365V201.537ZM36.4625 201.537H31.3288V192.379H36.4689L36.4625 201.537ZM42.682 201.537H37.5419V192.379H42.682V201.537ZM48.9079 201.537H43.7678V192.379H48.9079V201.537ZM55.1338 201.537H49.9937V192.379H55.1338V201.537ZM61.3533 201.537H56.2132V192.379H61.3533V201.537ZM67.5728 201.537H62.4328V192.379H67.5728V201.537ZM73.7923 201.537H68.6523V192.379H73.7923V201.537Z" fill="#E74C3C"/>
<path opacity="0.1" d="M11.5652 222.158V232.614H74.1007V222.158H11.5652ZM17.7975 231.952H12.696V222.82H17.8361L17.7975 231.952ZM24.0235 231.952H18.8834V222.82H24.0235V231.952ZM30.2365 231.952H25.0965V222.82H30.2365V231.952ZM36.4625 231.952H31.3288V222.82H36.4689L36.4625 231.952ZM42.682 231.952H37.5419V222.82H42.682V231.952ZM48.9079 231.952H43.7678V222.82H48.9079V231.952ZM55.1338 231.952H49.9937V222.82H55.1338V231.952ZM61.3533 231.952H56.2132V222.82H61.3533V231.952ZM67.5728 231.952H62.4328V222.82H67.5728V231.952ZM73.7923 231.952H68.6523V222.82H73.7923V231.952Z" fill="#E74C3C"/>
<path opacity="0.1" d="M11.5652 252.592V263.067H74.1007V252.592H11.5652ZM17.7975 262.386H12.696V253.248H17.8361L17.7975 262.386ZM24.0235 262.386H18.8834V253.248H24.0235V262.386ZM30.2365 262.386H25.0965V253.248H30.2365V262.386ZM36.4625 262.386H31.3288V253.248H36.4689L36.4625 262.386ZM42.682 262.386H37.5419V253.248H42.682V262.386ZM48.9079 262.386H43.7678V253.248H48.9079V262.386ZM55.1338 262.386H49.9937V253.248H55.1338V262.386ZM61.3533 262.386H56.2132V253.248H61.3533V262.386ZM67.5728 262.386H62.4328V253.248H67.5728V262.386ZM73.7923 262.386H68.6523V253.248H73.7923V262.386Z" fill="#E74C3C"/>
<path opacity="0.1" d="M11.5652 283.027V293.469H74.1007V283.027H11.5652ZM17.7975 292.82H12.696V283.676H17.8361L17.7975 292.82ZM24.0235 292.82H18.8834V283.676H24.0235V292.82ZM30.2365 292.82H25.0965V283.676H30.2365V292.82ZM36.4625 292.82H31.3288V283.676H36.4689L36.4625 292.82ZM42.682 292.82H37.5419V283.676H42.682V292.82ZM48.9079 292.82H43.7678V283.676H48.9079V292.82ZM55.1338 292.82H49.9937V283.676H55.1338V292.82ZM61.3533 292.82H56.2132V283.676H61.3533V292.82ZM67.5728 292.82H62.4328V283.676H67.5728V292.82ZM73.7923 292.82H68.6523V283.676H73.7923V292.82Z" fill="#E74C3C"/>
<path opacity="0.1" d="M11.8351 313.454C12.0857 314.438 12.3684 315.421 12.6639 316.391V314.11H17.804V323.248H15.0541C15.1376 323.46 15.2211 323.691 15.3046 323.891H74.1008V313.454H11.8351ZM24.0428 323.248H18.9027V314.11H24.0428V323.248ZM30.2559 323.248H25.1158V314.11H30.2559V323.248ZM36.4818 323.248H31.3289V314.11H36.4689L36.4818 323.248ZM42.7013 323.248H37.5612V314.11H42.7013V323.248ZM48.9272 323.248H43.7871V314.11H48.9272V323.248ZM55.1532 323.248H50.0131V314.11H55.1532V323.248ZM61.3727 323.248H56.2326V314.11H61.3727V323.248ZM67.5922 323.248H62.4521V314.11H67.5922V323.248ZM73.8117 323.248H68.6716V314.11H73.8117V323.248Z" fill="#E74C3C"/>
<path opacity="0.1" d="M26.3558 343.889C26.5164 344.094 26.6706 344.326 26.8377 344.531H30.2365V348.92C30.6028 349.357 30.9626 349.794 31.3352 350.206V344.506H36.4753V353.676H34.3936C34.5992 353.888 34.7984 354.113 35.0361 354.318H74.12V343.889H26.3558ZM42.682 353.676H37.5419V344.544H42.682V353.676ZM48.9079 353.676H43.7678V344.544H48.9079V353.676ZM55.1338 353.676H49.9937V344.544H55.1338V353.676ZM61.3533 353.676H56.2132V344.544H61.3533V353.676ZM67.5728 353.676H62.4327V344.544H67.5728V353.676ZM73.7923 353.676H68.6522V344.544H73.7923V353.676Z" fill="#E74C3C"/>
<path opacity="0.1" d="M60.6594 374.316C61.2441 374.651 61.8416 374.959 62.4456 375.293V374.972H67.5857V377.864L68.678 378.371V374.972H73.8181V380.531C73.9166 380.58 74.02 380.618 74.1265 380.646V374.316H60.6594Z" fill="#E74C3C"/>
<path opacity="0.1" d="M484.761 214.582H484.8H484.761ZM445.183 404.243H445.825H445.183ZM403.889 307.742C404.011 308.153 404.114 308.564 404.229 308.969C404.126 308.564 404.017 308.153 403.889 307.742ZM484.761 214.563H484.8H484.761ZM96.685 118.337V121.081H125.386V118.337H96.685ZM445.183 404.243H445.825H445.183ZM403.889 307.742C404.011 308.153 404.114 308.564 404.229 308.969C404.126 308.564 404.017 308.153 403.889 307.742ZM484.761 214.563H484.8H484.761ZM445.183 404.224H445.825H445.183ZM403.889 307.742C404.011 308.153 404.114 308.564 404.229 308.969C404.126 308.564 404.017 308.153 403.889 307.742Z" fill="#E74C3C"/>
<path d="M296.583 243.981C296.583 243.981 294.051 243.628 294.051 239.939C294.051 236.251 292.24 229.362 292.24 229.362C292.24 229.33 290.672 217.364 288.507 215.462C286.341 213.56 283.559 202.391 283.559 202.391C283.559 202.391 283.084 196.332 282.114 195.027C281.143 193.723 279.833 190.529 277.899 185.973C275.965 181.416 267.901 178.261 267.901 178.261C267.901 178.261 253.323 169.804 249.191 167.048C248.816 166.821 248.465 166.556 248.144 166.257C247.424 165.313 244.289 165.293 244.289 165.293C243.961 163.224 243.646 160.846 243.544 158.694C243.544 158.462 243.544 158.231 243.512 158C248.118 155.276 251.588 150.982 253.284 145.906C253.361 145.661 253.425 145.404 253.496 145.16C253.772 145.069 254.026 144.922 254.242 144.727C254.458 144.532 254.63 144.295 254.749 144.029C255.122 143.2 255.128 142.23 255.591 141.459C256.13 140.546 257.158 140.058 257.968 139.37C260.011 137.635 260.538 134.711 260.442 132.051C260.377 129.898 260.03 127.726 260.165 125.586L260.204 125.046C260.243 124.725 260.287 124.404 260.345 124.095C260.66 122.502 261.348 120.998 261.733 119.417C262.119 117.836 262.157 116.056 261.258 114.694C259.941 112.695 257.197 112.297 254.788 112.091C252.057 111.86 249.615 112.162 247.868 109.893C247.05 108.708 246.13 107.596 245.118 106.571C244.758 106.237 241.263 104.104 241.263 103.962C237.851 102.382 233.985 102.085 230.372 103.127C228.56 103.654 226.851 104.515 225.014 104.945C221.049 105.884 216.488 104.868 213.121 107.137C211.245 108.422 210.12 110.465 209.067 112.458C208.21 114.098 207.34 115.737 206.458 117.374C205.038 120.066 203.592 122.804 202.995 125.785C202.869 126.434 202.792 127.091 202.764 127.752V127.784C202.764 128.022 202.764 128.259 202.764 128.497V128.799C202.764 129.024 202.764 129.243 202.802 129.442C202.841 129.641 202.834 129.705 202.853 129.84C202.873 129.975 202.905 130.277 202.943 130.483C202.982 130.688 203.059 131.048 203.136 131.331C203.168 131.453 203.213 131.569 203.252 131.685C203.316 131.903 203.393 132.115 203.477 132.327C203.522 132.436 203.567 132.552 203.618 132.661C203.714 132.886 203.83 133.105 203.946 133.304C203.997 133.394 204.036 133.477 204.087 133.561C204.266 133.86 204.464 134.147 204.678 134.422C206.053 136.138 208.077 137.23 209.574 138.837C209.574 138.901 209.574 138.965 209.574 139.023C209.574 139.203 209.574 139.377 209.574 139.557C209.654 143.139 210.607 146.649 212.352 149.779C214.096 152.909 216.579 155.566 219.584 157.518C219.584 157.762 219.617 158.012 219.629 158.257C219.755 160.164 219.731 162.079 219.559 163.982C219.297 163.674 218.97 163.429 218.6 163.264C218.231 163.099 217.83 163.02 217.426 163.031C217.15 163.018 216.873 163.042 216.603 163.102L216.545 163.057V163.115C215.132 163.462 213.391 164.933 211.727 169.117C211.727 169.117 206.664 174.823 202.808 174.585C198.953 174.348 189.194 180.523 189.194 180.523C189.194 180.523 179.672 186.705 177.628 193.003C176.486 196.574 175.117 200.068 173.529 203.465L161.758 227.723L159.587 246.97C159.587 246.97 160.788 255.529 160.551 256.834C160.313 258.138 165.491 269.904 165.491 269.904C165.491 269.904 182.602 299.972 189.592 301.515L190.093 301.161C190.392 301.318 190.71 301.436 191.038 301.515L192.477 300.499C192.563 301.631 192.527 302.769 192.368 303.892C191.404 306.861 192.727 326.236 194.411 330.034C196.094 333.832 195.497 383.628 195.497 383.628L195.259 388.023C195.259 388.023 195.259 388.165 195.317 388.409L195.259 389.45L195.432 389.54C195.613 390.934 195.554 392.349 195.259 393.723C194.655 395.651 194.411 401.101 194.411 401.101C194.411 401.101 189.598 431.869 191.879 438.051C194.16 444.233 196.101 451.006 196.101 451.006C196.101 451.006 198.51 458.717 196.216 460.035C193.923 461.352 187.401 463.563 188.744 466.776C189.965 469.745 194.597 477.7 195.285 478.863L195.227 479.474L194.282 489.711C194.435 491.062 194.802 492.381 195.368 493.618C196.403 495.848 198.414 498.161 202.237 497.911C202.879 497.866 203.624 497.788 204.344 497.692C211.341 496.754 219.957 493.631 219.957 493.631C219.51 493.346 219.1 493.008 218.736 492.622C218.392 492.289 218.12 491.889 217.935 491.447C217.751 491.005 217.658 490.53 217.663 490.051C217.766 488.188 214.277 479.307 213.41 477.122C213.275 476.807 213.204 476.627 213.204 476.627C213.204 476.627 221.159 468.312 219.835 460.941C219.835 460.941 211.033 455.8 213.93 452.979C216.828 450.158 222.007 442.055 222.007 442.055C222.007 442.055 222.244 411.755 222.007 407.231C221.759 404.091 221.908 400.932 222.45 397.83C222.546 397.361 222.662 396.904 222.784 396.455C226.792 397.053 230.837 397.36 234.889 397.373C236.367 397.373 237.87 397.373 239.387 397.284C239.387 397.712 239.406 398.175 239.444 398.672C239.779 406.177 240.402 419.338 240.909 424.228C241.629 431.239 245.606 450.132 245.606 450.132C245.606 450.132 238.018 455.003 246.93 467.007C246.93 467.007 246.93 471.358 246.339 471.987C245.708 474.046 245.199 476.14 244.816 478.259C244.443 480.521 244.289 482.809 244.893 483.998C246.339 486.838 255.012 486.607 255.012 486.607L255.224 486.568C256.862 486.399 258.517 486.557 260.093 487.032C261.669 487.508 263.135 488.291 264.406 489.338C267.702 491.986 280.212 490.822 286.984 489.981C289.637 489.646 291.411 489.338 291.411 489.338C291.497 489.038 291.527 488.724 291.501 488.413C291.43 486.748 290.126 483.098 281.285 479.84C281.285 479.84 272.971 474.249 273.086 469.378H272.913H271.949C272.649 469.34 273.099 469.378 273.099 469.378C273.099 469.378 269.842 457.49 271.172 456.526C272.502 455.562 268.518 442.389 268.518 442.389C268.518 442.389 266.237 420.283 266.115 418.734C266.12 417.405 266.322 416.084 266.713 414.814L266.115 402.694C266.115 402.694 265.999 398.665 266.115 397.354C266.096 396.216 266.003 395.081 265.839 393.955C265.781 393.505 265.723 393.036 265.659 392.573C268.775 391.783 270.799 391.05 270.799 391.05L270.439 348.863C273.086 343.722 273.575 332.444 273.562 324.443C273.562 319.302 273.33 315.498 273.33 315.498L276.948 309.592C276.948 309.592 277.783 302.524 276.459 300.975C275.875 300.274 276.138 299.548 276.62 298.951C276.87 298.752 277.134 298.572 277.41 298.411C277.41 298.411 277.372 298.353 277.327 298.269C277.579 298.058 277.848 297.867 278.13 297.698C278.13 297.698 276.845 295.705 277.995 294.864C279.074 295.596 280.038 296.149 280.771 296.599C280.719 297.068 280.668 297.338 280.668 297.338L280.976 296.695C281.683 297.094 282.114 297.338 282.114 297.338C282.114 297.338 287.781 286.047 287.658 284.383C287.536 282.718 291.514 275.707 291.514 275.707C291.514 275.707 291.995 272.025 294.167 270.483C296.339 268.941 295.85 257.766 295.85 257.766C295.85 257.766 296.454 251.943 297.9 249.566C299.346 247.188 296.583 243.981 296.583 243.981ZM188.153 239.027L188.262 241.719C187.62 240.685 187.157 239.939 187.157 239.939L188.153 239.027Z" fill="url(#paint0_linear)"/>
<path d="M282.422 292.46L281.034 298.372C281.034 298.372 269.919 292.698 267.914 285.488C265.91 278.278 271.268 275.54 271.268 275.54L281.625 279.929L282.422 292.46Z" fill="white"/>
<path opacity="0.1" d="M282.422 292.46L281.034 298.372C281.034 298.372 269.919 292.698 267.914 285.488C265.91 278.278 271.268 275.54 271.268 275.54L281.625 279.929L282.422 292.46Z" fill="black"/>
<path d="M220.041 493.669C220.041 493.669 209.76 497.448 202.693 497.923C198.941 498.174 196.968 495.873 195.953 493.656C195.398 492.424 195.041 491.112 194.893 489.769L195.811 479.583L196.3 474.159L211.315 470.259L213.442 476.762L213.641 477.257C214.496 479.429 217.92 488.265 217.817 490.109C217.813 490.581 217.904 491.05 218.085 491.486C218.267 491.922 218.534 492.317 218.871 492.647C219.216 493.036 219.609 493.38 220.041 493.669Z" fill="white"/>
<path d="M290.261 488.49C290.286 488.799 290.256 489.11 290.171 489.409C290.171 489.409 268.184 493.078 263.686 489.409C262.418 488.337 260.94 487.542 259.347 487.075C257.754 486.608 256.08 486.479 254.434 486.697C254.434 486.697 245.927 486.928 244.507 484.126C243.916 482.95 244.071 480.669 244.437 478.42C244.81 476.313 245.308 474.229 245.927 472.18L246.268 471.91L248.292 470.285L271.988 469.584H272.168C272.052 474.429 280.212 479.988 280.212 479.988C288.879 483.201 290.158 486.832 290.261 488.49Z" fill="white"/>
<path opacity="0.1" d="M290.261 488.49C290.283 488.799 290.251 489.111 290.164 489.409C290.164 489.409 268.184 493.078 263.686 489.409C262.419 488.338 260.942 487.543 259.35 487.076C257.758 486.609 256.086 486.48 254.441 486.697C254.441 486.697 245.927 486.928 244.514 484.126C243.923 482.944 244.071 480.669 244.437 478.42C247.714 478.748 252.886 479.564 254.916 481.511C257.987 484.473 263.192 487.429 266.385 487.661C268.884 487.821 283.836 488.297 290.261 488.49Z" fill="black"/>
<path opacity="0.1" d="M220.041 493.669C220.041 493.669 209.76 497.448 202.693 497.923C198.941 498.174 196.968 495.873 195.959 493.65C198.574 494.53 202.205 495.456 204.113 494.607C206.374 493.605 214.393 492.956 218.891 492.68C219.233 493.054 219.619 493.387 220.041 493.669Z" fill="black"/>
<path d="M235.294 189.166C226.813 185.87 215.903 174.977 218.627 169.888C219.232 168.604 219.592 167.217 219.687 165.801C219.862 163.878 219.888 161.944 219.764 160.017C219.573 156.862 219.194 153.72 218.627 150.61C218.627 150.61 245.105 151.207 243.563 155.108C243.113 156.252 243.042 158.237 243.165 160.461C243.287 162.684 243.608 165.197 243.942 167.324C244.405 170.241 244.867 172.465 244.867 172.465C244.867 172.465 243.248 174.733 242.297 174.855C241.346 174.977 247.463 193.864 235.294 189.166Z" fill="#CF6F80"/>
<path opacity="0.1" d="M213.622 477.257L213.423 477.475C205.507 467.9 195.934 479.834 195.934 479.834L195.792 479.583L196.281 474.159L211.296 470.259L213.423 476.762L213.622 477.257Z" fill="black"/>
<path opacity="0.1" d="M272.174 470.259C272.174 470.259 266.391 470.137 263.307 472.861C260.223 475.586 245.317 473.453 245.959 472.861C246.15 472.568 246.265 472.233 246.294 471.885L248.318 470.259L272.013 469.558C272.103 469.989 272.174 470.259 272.174 470.259Z" fill="black"/>
<path d="M223.472 395.066C223.041 396.131 222.714 397.235 222.495 398.363C221.959 401.451 221.81 404.594 222.052 407.72C222.289 412.218 222.052 442.363 222.052 442.363C222.052 442.363 216.969 450.402 214.136 453.236C211.303 456.07 219.919 461.159 219.919 461.159C221.204 468.485 213.416 476.762 213.416 476.762C205.501 467.187 195.927 479.127 195.927 479.127C195.927 479.127 190.723 470.13 189.425 466.917C188.127 463.704 194.507 461.481 196.75 460.176C198.992 458.872 196.64 451.18 196.64 451.18C196.64 451.18 194.745 444.439 192.496 438.289C190.247 432.139 194.976 401.525 194.976 401.525C194.976 401.525 195.22 396.088 195.805 394.193C196.1 392.825 196.159 391.416 195.979 390.028C195.94 389.559 195.895 389.167 195.863 388.904C195.831 388.64 195.805 388.518 195.805 388.518L195.895 388.364L199.108 382.375C199.108 382.375 225.014 391.294 223.472 395.066Z" fill="#E74C3C"/>
<path d="M272.174 469.552C272.174 469.552 266.391 469.43 263.307 472.122C260.223 474.815 245.317 472.714 245.96 472.122C246.602 471.531 246.551 467.155 246.551 467.155C237.806 455.215 245.266 450.37 245.266 450.37C245.266 450.37 241.359 431.573 240.652 424.601C240.158 419.73 239.547 406.64 239.22 399.166C239.078 395.953 238.995 393.743 238.995 393.743L246.139 392.303L247.058 392.117L264.29 388.66C264.29 388.66 264.766 391.873 265.087 394.501C265.247 395.623 265.337 396.754 265.357 397.888C265.241 399.173 265.357 403.196 265.357 403.196L265.942 415.257C265.56 416.523 265.363 417.836 265.357 419.158C265.473 420.694 267.715 442.684 267.715 442.684C267.715 442.684 271.615 455.806 270.285 456.751C268.955 457.696 272.174 469.552 272.174 469.552Z" fill="#E74C3C"/>
<path opacity="0.1" d="M243.563 155.108C243.113 156.252 243.042 158.237 243.165 160.461C239.618 162.597 235.541 163.689 231.402 163.612C227.262 163.534 223.229 162.291 219.764 160.024C219.574 156.866 219.194 153.722 218.627 150.61C218.627 150.61 245.105 151.194 243.563 155.108Z" fill="black"/>
<path d="M253.798 140.906C253.803 143.222 253.439 145.523 252.719 147.724C251.109 152.655 247.808 156.859 243.399 159.591C238.991 162.324 233.758 163.409 228.627 162.657C223.495 161.904 218.795 159.361 215.357 155.477C211.918 151.593 209.963 146.619 209.838 141.433C209.838 141.253 209.838 141.086 209.838 140.906C209.788 137.987 210.319 135.087 211.402 132.376C212.484 129.665 214.096 127.196 216.142 125.114C218.188 123.032 220.628 121.379 223.32 120.25C226.012 119.121 228.902 118.54 231.821 118.54C234.74 118.54 237.63 119.121 240.322 120.25C243.014 121.379 245.454 123.032 247.5 125.114C249.547 127.196 251.158 129.665 252.24 132.376C253.323 135.087 253.854 137.987 253.805 140.906H253.798Z" fill="#CF6F80"/>
<path opacity="0.1" d="M235.294 189.166C226.813 185.87 215.903 174.977 218.627 169.888C219.232 168.604 219.592 167.217 219.687 165.801L231.297 175.344L238.481 181.237L243.942 167.33C244.405 170.248 244.867 172.471 244.867 172.471C244.867 172.471 243.248 174.74 242.297 174.862C241.346 174.984 247.463 193.864 235.294 189.166Z" fill="black"/>
<path d="M265.318 231.341L255.623 394.244L242.978 395.073L210.236 300.615L215.607 188.472L216.738 164.779L231.297 176.738L238.487 182.631L244.109 168.32L254.563 177.432L265.318 231.341Z" fill="#E74C3C"/>
<path opacity="0.1" d="M223.472 395.066C223.041 396.131 222.714 397.235 222.495 398.363C213.294 396.942 204.358 394.15 195.985 390.08L195.812 389.99L195.869 388.955L195.901 388.415L199.114 382.426C199.114 382.426 225.014 391.294 223.472 395.066Z" fill="black"/>
<path opacity="0.1" d="M246.287 398.389C243.935 398.789 241.563 399.059 239.181 399.198C239.04 395.985 238.956 393.775 238.956 393.775L246.101 392.335L246.287 398.389Z" fill="black"/>
<path opacity="0.1" d="M265.048 394.533C260.48 395.722 253.425 397.059 247.11 396.223L247.02 392.149L264.252 388.692C264.252 388.692 264.727 391.873 265.048 394.533Z" fill="black"/>
<path opacity="0.1" d="M246.994 396.969C220.651 401.467 196.525 388.57 196.525 388.57L196.756 384.2C196.756 384.2 197.354 334.661 195.696 330.863C194.038 327.065 192.747 307.806 193.685 304.85C194.623 301.894 190.26 257.566 190.26 257.566L189.554 239.573L163.686 229.092L175.251 204.981C176.813 201.601 178.157 198.123 179.273 194.571C181.284 188.312 190.62 182.162 190.62 182.162C190.62 182.162 200.193 176.018 203.978 176.25C207.762 176.481 212.722 170.813 212.722 170.813C216.385 161.476 219.7 165.705 219.7 165.705C219.7 166.148 219.7 165.705 219.52 167.086C218.235 177.336 240.299 209.724 240.614 210.296L242.715 261.486L244.842 326.268L246.994 396.969Z" fill="black"/>
<path d="M246.287 396.969C219.944 401.467 195.812 388.57 195.812 388.57L196.049 384.2C196.049 384.2 196.647 334.661 194.983 330.863C193.319 327.065 192.034 307.806 192.978 304.85C193.923 301.894 189.553 257.566 189.553 257.566L188.84 239.573L162.96 229.053L174.525 204.943C176.084 201.561 177.427 198.084 178.547 194.532C180.552 188.273 189.894 182.123 189.894 182.123C189.894 182.123 199.467 175.98 203.245 176.211C207.023 176.443 211.99 170.775 211.99 170.775C215.659 161.438 219.7 165.666 219.7 165.666C219.7 166.109 219.315 166.309 219.52 167.048C222.347 176.989 239.592 209.685 239.907 210.257L242.034 261.448L244.16 326.23L246.287 396.969Z" fill="white"/>
<path opacity="0.1" d="M239.187 211.716C236.354 210.533 221.345 193.395 221.345 193.395V189.494C220.799 188.209 217.554 188.993 214.92 189.893L216.051 166.199L217.336 167.266C220.15 177.201 238.86 211.144 239.187 211.716Z" fill="black"/>
<path d="M239.901 210.296C237.061 209.113 222.052 191.975 222.052 191.975V188.074C221.506 186.789 218.261 187.573 215.627 188.472L216.764 164.779L218.049 165.846C220.869 175.781 239.586 209.73 239.901 210.296Z" fill="white"/>
<path opacity="0.1" d="M196.525 295.77C196.878 295.77 214.843 293.88 214.843 293.88C214.843 293.88 225.72 315.273 225.007 320.478C224.294 325.683 223.003 330.291 218.627 329.475C214.252 328.659 195.079 330.117 195.079 330.117L196.525 295.77Z" fill="black"/>
<path d="M195.812 294.35C196.165 294.35 214.13 292.46 214.13 292.46C214.13 292.46 225.001 313.859 224.294 319.058C223.587 324.257 222.283 328.871 217.914 328.055C213.545 327.239 194.366 328.697 194.366 328.697L195.812 294.35Z" fill="white"/>
<path d="M209.349 284.305C209.349 284.305 225.836 293.167 226.189 295.873C226.543 298.578 217.798 294.69 215.909 294.221C214.666 293.921 213.4 293.724 212.125 293.63L199.525 293.97L209.349 284.305Z" fill="#CF6F80"/>
<path opacity="0.1" d="M234.587 212.821C235.545 212.821 236.322 212.044 236.322 211.086C236.322 210.128 235.545 209.351 234.587 209.351C233.629 209.351 232.852 210.128 232.852 211.086C232.852 212.044 233.629 212.821 234.587 212.821Z" fill="black"/>
<path d="M234.587 212.114C235.545 212.114 236.322 211.337 236.322 210.379C236.322 209.421 235.545 208.644 234.587 208.644C233.629 208.644 232.852 209.421 232.852 210.379C232.852 211.337 233.629 212.114 234.587 212.114Z" fill="#3F3D56"/>
<path opacity="0.1" d="M237.78 287.93C238.738 287.93 239.515 287.153 239.515 286.195C239.515 285.236 238.738 284.46 237.78 284.46C236.822 284.46 236.046 285.236 236.046 286.195C236.046 287.153 236.822 287.93 237.78 287.93Z" fill="black"/>
<path d="M237.78 287.217C238.738 287.217 239.515 286.44 239.515 285.481C239.515 284.523 238.738 283.746 237.78 283.746C236.822 283.746 236.046 284.523 236.046 285.481C236.046 286.44 236.822 287.217 237.78 287.217Z" fill="#3F3D56"/>
<path opacity="0.1" d="M236.315 250.375C237.274 250.375 238.05 249.599 238.05 248.64C238.05 247.682 237.274 246.905 236.315 246.905C235.357 246.905 234.581 247.682 234.581 248.64C234.581 249.599 235.357 250.375 236.315 250.375Z" fill="black"/>
<path d="M236.315 249.669C237.274 249.669 238.05 248.892 238.05 247.933C238.05 246.975 237.274 246.198 236.315 246.198C235.357 246.198 234.581 246.975 234.581 247.933C234.581 248.892 235.357 249.669 236.315 249.669Z" fill="#3F3D56"/>
<path d="M276.305 293.27C276.305 293.27 277.487 295.044 276.305 295.873C275.123 296.701 276.421 298.706 276.421 298.706C276.421 298.706 273.472 300.435 274.77 301.99C276.068 303.545 275.245 310.569 275.245 310.569L271.698 316.443C271.698 316.443 271.91 320.228 271.923 325.343C271.923 333.324 271.454 344.544 268.859 349.659L269.218 391.628C269.218 391.628 256.799 396.165 246.403 394.784L244.861 327.438C244.861 327.438 247.11 289.247 247.938 281.921C248.423 278.118 248.621 274.284 248.529 270.451C248.529 270.451 248.176 258.986 246.987 253.666C246.987 253.666 245.702 230.615 245.574 224.234C245.516 221.181 245.677 212.275 245.857 203.805C246.056 194.545 246.281 185.812 246.281 185.812L243.936 167.253C243.936 167.253 246.281 167.015 246.987 167.96C247.304 168.256 247.648 168.521 248.015 168.751C252.063 171.488 266.366 179.906 266.366 179.906C266.366 179.906 274.281 183.055 276.177 187.566C278.072 192.077 279.389 195.278 280.308 196.563C281.227 197.848 281.728 203.889 281.728 203.889C281.728 203.889 284.452 215.006 286.579 216.889C288.706 218.772 290.261 230.75 290.261 230.75L271.467 245.53C271.467 245.53 269.816 270.117 269.463 271.068C269.109 272.019 276.305 293.27 276.305 293.27Z" fill="white"/>
<path d="M277.018 293.27C277.018 293.27 278.194 295.044 277.018 295.873C275.843 296.701 277.128 298.706 277.128 298.706C277.128 298.706 274.198 300.454 275.483 302.009C276.768 303.565 275.958 310.588 275.958 310.588L272.412 316.462C272.412 316.462 272.624 320.247 272.643 325.362C272.643 333.343 272.174 344.563 269.578 349.679L269.932 391.648C269.932 391.648 257.493 396.185 247.11 394.803L245.574 327.457C245.574 327.457 247.823 289.266 248.652 281.941C249.137 278.137 249.333 274.303 249.236 270.47C249.236 270.47 248.883 259.006 247.701 253.685C247.701 253.685 246.416 230.634 246.281 224.253C246.223 221.201 246.39 212.294 246.563 203.824C246.763 194.564 246.988 185.831 246.988 185.831L243.891 167.022C243.891 167.022 246.988 167.022 247.701 167.979C248.014 168.279 248.359 168.544 248.729 168.77C252.777 171.507 267.085 179.926 267.085 179.926C267.085 179.926 274.995 183.074 276.89 187.586C278.785 192.097 280.103 195.297 281.028 196.582C281.953 197.867 282.441 203.908 282.441 203.908C282.441 203.908 285.166 215.025 287.292 216.908C289.419 218.791 290.955 230.744 290.955 230.744L272.161 245.524C272.161 245.524 270.51 270.11 270.15 271.061C269.79 272.012 277.018 293.27 277.018 293.27Z" fill="white"/>
<path opacity="0.1" d="M254.511 191.287L256.208 196.235L247.277 205.232C247.476 195.978 247.701 187.239 247.701 187.239L244.604 168.429C244.604 168.429 247.701 168.429 248.414 169.387C248.727 169.685 249.071 169.948 249.442 170.171L257.036 192.084L254.511 191.287Z" fill="black"/>
<path d="M253.798 189.867L255.501 194.815L246.57 203.812C246.769 194.551 246.994 185.818 246.994 185.818L243.891 167.009C243.891 167.009 246.994 167.009 247.701 167.967C248.016 168.264 248.36 168.529 248.729 168.757L256.33 190.664L253.798 189.867Z" fill="white"/>
<path opacity="0.1" d="M253.798 140.906C253.803 143.222 253.439 145.523 252.719 147.724C252.597 147.743 252.473 147.738 252.354 147.708C252.235 147.678 252.123 147.625 252.025 147.551C251.858 141.767 249.011 136.337 245.51 131.717C244.527 130.322 243.335 129.086 241.976 128.054C240.602 127.022 238.893 126.538 237.183 126.698C235.255 126.961 233.553 128.272 231.606 128.439C229.036 128.651 226.736 126.871 224.185 126.781C223.148 126.791 222.125 127.022 221.184 127.459C220.244 127.895 219.407 128.528 218.73 129.313C217.39 130.899 216.394 132.746 215.806 134.737C214.796 137.756 214.246 140.91 214.175 144.093C214.142 145.893 213.969 148.148 212.298 148.804C212.424 147.481 212.274 146.146 211.857 144.883C211.44 143.621 210.765 142.459 209.876 141.472L209.838 141.433C209.838 141.253 209.838 141.086 209.838 140.906C209.788 137.987 210.319 135.087 211.402 132.376C212.484 129.665 214.096 127.196 216.142 125.114C218.188 123.032 220.628 121.379 223.32 120.25C226.012 119.121 228.902 118.54 231.821 118.54C234.74 118.54 237.63 119.121 240.322 120.25C243.014 121.379 245.454 123.032 247.5 125.114C249.547 127.196 251.158 129.665 252.24 132.376C253.323 135.087 253.854 137.987 253.805 140.906H253.798Z" fill="black"/>
<path d="M240.922 105.993C237.584 104.422 233.786 104.125 230.244 105.157C228.464 105.684 226.787 106.539 224.982 106.97C221.127 107.901 216.629 106.892 213.32 109.148C211.482 110.433 210.377 112.464 209.349 114.437L206.779 119.334C205.379 122.013 203.965 124.738 203.38 127.687C202.796 130.637 203.149 133.94 205.019 136.311C206.381 138.04 208.392 139.126 209.87 140.752C210.755 141.741 211.427 142.902 211.842 144.162C212.258 145.423 212.409 146.756 212.286 148.078C213.963 147.435 214.123 145.173 214.162 143.374C214.233 140.191 214.783 137.037 215.794 134.017C216.38 132.026 217.376 130.178 218.717 128.594C219.395 127.809 220.231 127.177 221.172 126.74C222.113 126.304 223.135 126.072 224.172 126.062C226.742 126.152 229.049 127.925 231.593 127.713C233.521 127.553 235.23 126.235 237.17 125.978C238.881 125.816 240.59 126.3 241.963 127.334C243.322 128.365 244.512 129.601 245.491 130.997C248.999 135.617 251.845 141.035 252.012 146.831C252.738 147.364 253.785 146.67 254.145 145.848C254.505 145.025 254.518 144.061 254.974 143.277C255.501 142.371 256.51 141.889 257.3 141.208C259.305 139.479 259.806 136.568 259.729 133.927C259.651 131.286 259.137 128.606 259.639 126.01C259.941 124.417 260.622 122.926 260.994 121.351C261.367 119.777 261.412 118.01 260.532 116.654C259.247 114.662 256.542 114.27 254.184 114.083C251.504 113.852 249.108 114.148 247.399 111.892C246.597 110.715 245.694 109.61 244.7 108.589C244.36 108.255 240.922 106.134 240.922 105.993Z" fill="#512E4E"/>
<path opacity="0.1" d="M171.088 241.507L164.374 229.092L162.247 248.248C162.247 248.248 163.429 256.757 163.191 258.061C162.954 259.366 168.036 271.061 168.036 271.061C168.036 271.061 184.825 300.968 191.68 302.511L214.843 285.957L208.7 278.156C208.7 278.156 206.574 277.327 206.04 278.156C206.04 278.156 194.636 258.53 193.454 257.11C192.271 255.69 192.503 252.856 192.503 252.856C192.503 252.856 190.729 250.967 191.32 249.193C191.912 247.419 187.896 241.27 187.896 241.27L191.558 237.844L171.088 241.507Z" fill="black"/>
<path d="M164.727 227.678L162.954 229.092L160.827 248.248C160.827 248.248 162.009 256.757 161.771 258.061C161.534 259.366 166.622 271.061 166.622 271.061C166.622 271.061 183.405 300.968 190.26 302.511L213.429 285.957L207.28 278.156C207.28 278.156 205.154 277.327 204.62 278.156C204.62 278.156 193.216 258.53 192.034 257.11C190.851 255.69 191.089 252.856 191.089 252.856C191.089 252.856 189.316 250.967 189.907 249.193C190.498 247.419 186.476 241.27 186.476 241.27L190.138 237.844L164.727 227.678Z" fill="white"/>
<path opacity="0.1" d="M274.77 302.723C276.055 304.284 275.245 311.295 275.245 311.295L271.698 317.169C271.698 317.169 271.911 320.96 271.923 326.069L265.961 327.933C265.422 328.101 264.851 328.138 264.295 328.04C263.739 327.943 263.214 327.714 262.764 327.373C262.315 327.031 261.953 326.587 261.71 326.077C261.467 325.568 261.349 325.008 261.367 324.443L262.395 291.278L276.305 296.599C275.123 297.421 276.421 299.439 276.421 299.439C276.421 299.439 273.472 301.161 274.77 302.723Z" fill="black"/>
<path d="M275.483 302.009C276.768 303.571 275.958 310.588 275.958 310.588L272.412 316.462C272.412 316.462 272.624 320.247 272.643 325.362L266.571 327.258C266.043 327.422 265.484 327.457 264.94 327.362C264.396 327.266 263.882 327.041 263.442 326.707C263.002 326.372 262.648 325.938 262.41 325.439C262.172 324.94 262.057 324.392 262.074 323.839L263.108 290.571L277.025 295.892C275.836 296.714 277.134 298.726 277.134 298.726C277.134 298.726 274.198 300.454 275.483 302.009Z" fill="white"/>
<path d="M280.09 286.201C280.09 286.201 279.145 292.235 276.781 292.589C274.416 292.942 273.356 302.35 270.998 302.016C268.64 301.682 270.201 293.27 270.285 291.638C270.369 290.005 267.715 283.245 269.7 281.709C271.686 280.173 277.969 281.709 277.969 281.709L280.09 286.201Z" fill="#CF6F80"/>
<path opacity="0.1" d="M285.121 239.734L289.58 230.737C289.58 230.737 291.353 237.594 291.353 241.257C291.353 244.92 293.833 245.279 293.833 245.279C293.833 245.279 296.551 248.493 295.118 250.832C293.685 253.171 293.107 258.993 293.107 258.993C293.107 258.993 293.576 270.104 291.449 271.64C289.323 273.175 288.879 276.845 288.879 276.845C288.879 276.845 284.973 283.817 285.095 285.475C285.217 287.133 279.659 298.359 279.659 298.359C279.659 298.359 282.377 284.408 266.539 278.381C266.539 278.381 266.417 273.644 267.599 272.346C268.781 271.048 270.625 270.457 269.469 263.896C268.312 257.335 269.135 249.495 269.135 247.921C269.135 246.346 272.682 236.527 272.682 236.527L285.121 239.734Z" fill="black"/>
<path d="M287.048 229.452L290.942 230.737C290.942 230.737 292.721 237.594 292.721 241.257C292.721 244.92 295.202 245.28 295.202 245.28C295.202 245.28 297.919 248.493 296.487 250.832C295.054 253.171 294.482 258.993 294.482 258.993C294.482 258.993 294.951 270.104 292.824 271.64C290.698 273.175 290.222 276.845 290.222 276.845C290.222 276.845 286.322 283.817 286.444 285.475C286.566 287.133 281.002 298.359 281.002 298.359C281.002 298.359 283.726 284.408 267.882 278.381C267.882 278.381 267.766 273.644 268.949 272.346C270.131 271.048 271.975 270.457 270.818 263.896C269.662 257.335 270.484 249.495 270.484 247.921C270.484 246.346 274.031 236.527 274.031 236.527L287.048 229.452Z" fill="white"/>
<path opacity="0.1" d="M201.048 462.637C201.048 462.637 207.255 458.737 211.328 461.571C215.402 464.405 201.048 462.637 201.048 462.637Z" fill="black"/>
<path opacity="0.1" d="M249.275 450.575C249.275 450.575 254.768 449.869 259.382 454.836C263.995 459.803 249.275 450.575 249.275 450.575Z" fill="black"/>
<g opacity="0.1">
<path opacity="0.1" d="M257.313 139.801C256.522 140.482 255.507 140.97 254.98 141.876C254.531 142.654 254.518 143.611 254.158 144.447C253.798 145.282 252.751 145.963 252.025 145.437C251.858 139.653 249.005 134.223 245.503 129.596C244.524 128.2 243.334 126.964 241.976 125.933C240.601 124.899 238.889 124.416 237.176 124.577C235.249 124.841 233.553 126.152 231.606 126.312C229.036 126.531 226.729 124.751 224.178 124.661C223.142 124.671 222.119 124.903 221.18 125.341C220.24 125.778 219.405 126.412 218.73 127.199C217.389 128.781 216.393 130.627 215.806 132.616C214.797 135.636 214.247 138.79 214.174 141.973C214.136 143.766 213.969 146.002 212.311 146.67C212.35 147.145 212.35 147.622 212.311 148.097C213.982 147.454 214.149 145.192 214.187 143.393C214.259 140.21 214.809 137.056 215.819 134.037C216.406 132.045 217.401 130.198 218.743 128.613C219.419 127.828 220.255 127.196 221.194 126.76C222.134 126.323 223.155 126.092 224.191 126.081C226.761 126.171 229.074 127.945 231.619 127.732C233.546 127.572 235.255 126.254 237.189 125.997C238.902 125.836 240.614 126.319 241.989 127.353C243.347 128.384 244.537 129.62 245.516 131.016C249.018 135.637 251.871 141.054 252.038 146.85C252.764 147.384 253.811 146.69 254.171 145.867C254.531 145.045 254.543 144.081 254.993 143.297C255.52 142.391 256.535 141.909 257.325 141.227C259.33 139.499 259.831 136.588 259.754 133.947C259.754 133.863 259.754 133.779 259.754 133.702C259.632 135.99 259.022 138.323 257.313 139.801Z" fill="black"/>
<path opacity="0.1" d="M209.882 139.345C208.405 137.719 206.387 136.633 205.032 134.91C203.89 133.386 203.238 131.551 203.162 129.647C202.96 132.026 203.624 134.397 205.032 136.324C206.387 138.053 208.405 139.139 209.882 140.765C211.301 142.355 212.153 144.371 212.305 146.497C212.403 145.203 212.239 143.903 211.823 142.674C211.407 141.445 210.747 140.312 209.882 139.345Z" fill="black"/>
<path opacity="0.1" d="M261.007 119.944C260.628 121.518 259.953 123.016 259.645 124.603C259.462 125.664 259.396 126.741 259.446 127.816C259.467 127.204 259.534 126.594 259.645 125.991C259.953 124.397 260.628 122.906 261.007 121.332C261.228 120.464 261.3 119.564 261.219 118.672C261.179 119.1 261.108 119.526 261.007 119.944Z" fill="black"/>
</g>
<path opacity="0.1" d="M85.2804 488.766C119.857 488.766 147.887 484.263 147.887 478.709C147.887 473.155 119.857 468.652 85.2804 468.652C50.704 468.652 22.6742 473.155 22.6742 478.709C22.6742 484.263 50.704 488.766 85.2804 488.766Z" fill="#E74C3C"/>
<path d="M87.2979 286.053H83.2694V376.771H87.2979V286.053Z" fill="#535461"/>
<path d="M112.613 376.495L112.362 380.582L112.002 386.365L111.855 388.769L111.501 394.552L111.347 396.956L110.987 402.739L106.927 468.331C106.75 471.153 105.505 473.802 103.445 475.738C101.385 477.675 98.664 478.753 95.8369 478.754H74.724C71.8974 478.753 69.1776 477.674 67.1185 475.738C65.0593 473.801 63.8156 471.152 63.6407 468.331L59.5993 402.694L59.2395 396.911L59.0917 394.507L58.7319 388.724L58.5841 386.321L58.2243 380.537L57.9673 376.45C57.9227 375.663 58.0392 374.876 58.3097 374.136C58.5803 373.396 58.9991 372.719 59.5406 372.147C60.0821 371.575 60.7348 371.119 61.4586 370.808C62.1824 370.497 62.9621 370.337 63.7499 370.339H106.933C107.718 370.345 108.493 370.513 109.21 370.831C109.928 371.149 110.573 371.611 111.105 372.188C111.637 372.764 112.046 373.444 112.305 374.185C112.564 374.926 112.669 375.712 112.613 376.495Z" fill="#3F3D56"/>
<path d="M112.362 380.582L112.002 386.346H58.5584L58.1986 380.582H112.362Z" fill="#9D9CB5"/>
<path d="M111.855 388.75L111.501 394.52H59.066L58.7062 388.75H111.855Z" fill="#9D9CB5"/>
<path d="M111.347 396.93L110.994 402.694H59.5735L59.2137 396.93H111.347Z" fill="#9D9CB5"/>
<path d="M52.0498 320.054C75.5079 337.032 85.2997 363.585 85.2997 363.585C85.2997 363.585 57.0293 362.614 33.5648 345.637C10.1003 328.659 0.327698 302.112 0.327698 302.112C0.327698 302.112 28.5853 303.076 52.0498 320.054Z" fill="#E74C3C"/>
<path d="M0.308411 302.112C0.308411 302.112 29.6583 318.403 39.0711 331.891C48.4839 345.38 85.2997 363.585 85.2997 363.585" stroke="#535461" stroke-width="2" stroke-miterlimit="10"/>
<path d="M67.1938 285.854C79.9604 295.089 85.2997 309.541 85.2997 309.541C85.2997 309.541 69.9116 309.014 57.1385 299.78C44.3654 290.545 39.0389 276.086 39.0389 276.086C39.0389 276.086 54.4207 276.613 67.1938 285.854Z" fill="#E74C3C"/>
<path d="M39.0389 276.086C39.0389 276.086 55.0118 284.955 60.1326 292.293C65.2534 299.632 85.2997 309.541 85.2997 309.541" stroke="#535461" stroke-width="2" stroke-miterlimit="10"/>
<path d="M103.836 308.808C89.1676 324.932 86.0643 346.003 86.0643 346.003C86.0643 346.003 106.747 340.926 121.402 324.797C136.058 308.667 139.174 287.602 139.174 287.602C139.174 287.602 118.505 292.685 103.836 308.808Z" fill="#E74C3C"/>
<path d="M139.187 287.608C139.187 287.608 120.079 304.137 115.221 315.524C110.364 326.911 86.0643 346.003 86.0643 346.003" stroke="#535461" stroke-width="2" stroke-miterlimit="10"/>
<path d="M642.299 303.134C642.299 303.134 631.691 250.35 635.751 243.782C635.751 243.782 635.899 237.677 635.655 229.895C635.655 229.6 635.655 229.304 635.655 229.002C636.369 229.478 637.114 229.908 637.885 230.287C641.626 232.21 645.921 232.764 650.028 231.855L646.815 228.276C646.044 227.421 645.241 226.496 645.074 225.365C644.907 224.234 645.37 223.225 645.768 222.216C648.82 214.505 648.981 204.808 643.102 198.921C638.135 193.973 636.927 187.586 631.537 183.068C627.598 179.759 625.433 174.907 623.39 170.216C621.661 166.251 619.92 162.254 618.93 158.051C618.159 154.767 617.851 151.368 616.791 148.161C615.731 144.955 613.745 141.838 610.642 140.405C609.537 139.897 608.31 139.608 607.301 138.933C605.977 138.04 605.181 136.588 604.223 135.315C599.36 128.889 583.072 132.674 575.362 135.283C573.266 135.94 571.325 137.016 569.656 138.445L569.727 138.329C569.785 138.233 569.856 138.136 569.92 138.04C569.076 138.723 568.347 139.536 567.761 140.45C566.637 142.23 566.168 144.306 565.229 146.233C564.099 148.515 557.808 154.883 560.513 157.447C560.703 157.619 560.92 157.758 561.156 157.858C562.171 158.281 563.289 158.393 564.368 158.18L564.253 158.456C563.329 160.718 562.855 163.139 562.859 165.582C562.859 176.141 571.565 184.7 582.314 184.7C584.335 184.702 586.344 184.392 588.27 183.781C588.315 184.026 588.353 184.27 588.398 184.514C588.398 184.61 588.431 184.707 588.443 184.803L588.103 185.279C588.086 185.249 588.066 185.221 588.045 185.195L577.958 199.294C576.416 200.38 567.536 206.806 567.035 211.626C566.508 216.902 565.981 223.077 565.981 223.077L565.911 224.401C565.47 224.769 564.954 225.038 564.399 225.188C563.845 225.337 563.264 225.365 562.698 225.268C559.55 224.754 559.55 236.836 559.55 236.836C559.55 236.836 557.455 238.763 556.016 237.093C554.577 235.422 550.773 241.083 550.773 241.083L526.936 242.111L526.39 242.144L525.105 238.166C524.966 237.746 524.668 237.398 524.275 237.197C523.881 236.996 523.425 236.959 523.004 237.093C522.904 237.125 522.807 237.166 522.715 237.215L522.625 237.266L522.458 237.382L522.374 237.459C522.328 237.501 522.285 237.546 522.245 237.594L522.168 237.684L522.13 237.722C521.981 237.928 521.883 238.165 521.843 238.415C521.803 238.665 521.822 238.921 521.899 239.162L523.004 242.574C518.403 243.499 513.7 246.108 517.536 253.293L498.094 249.701L504.384 254.983L536.856 261.685C536.426 262.457 536.708 263.575 538.051 265.149C543.834 271.942 554.371 273.786 558.612 274.261C559.731 276.767 561.13 279.138 562.782 281.33L562.415 288.097C562.415 288.097 551.679 339.673 549.713 342.289C550.705 341.164 551.614 339.967 552.431 338.709C549.314 349.306 544.958 363.81 543.815 365.982C541.977 369.452 540.274 383.493 542.369 384.393C543.011 384.669 544.849 384.534 547.47 384.335V385.498L547.355 429.575C547.355 429.575 547.882 456.61 546.436 459.187C544.99 461.763 544.605 467.168 544.605 467.168C544.605 467.168 538.822 477.829 534.241 482.115C534.21 482.148 534.176 482.179 534.138 482.205L533.997 481.203C533.997 481.203 528.491 488.156 516.309 487.764C516.309 487.764 508.978 492.532 519.849 492.789C530.72 493.046 544.605 492.403 544.605 492.403C544.605 492.403 554.3 477.623 562.422 479.551V490.752H564.908V479.371C566.061 478.612 567.048 477.626 567.809 476.474C568.57 475.322 569.089 474.027 569.335 472.669C569.548 471.268 569.392 469.836 568.883 468.514C568.373 467.193 567.528 466.026 566.431 465.131C565.938 464.685 565.542 464.142 565.269 463.536C564.996 462.93 564.851 462.274 564.844 461.609L564.754 461.686C564.754 461.461 564.696 461.23 564.67 460.992C563.957 455.209 563.064 443.275 566.219 434.446C570.543 422.339 571.854 405.477 568.705 395.439C567.69 392.231 566.855 388.967 566.206 385.665C566.129 385.247 566.058 384.849 565.994 384.476C568.146 384.767 570.277 385.197 572.374 385.761C579.667 387.773 595.62 388.146 609.241 388.036C609.274 388.409 609.312 388.801 609.357 389.193C609.6 391.918 610.108 394.612 610.873 397.239C612.582 402.379 613.366 425.044 613.366 425.044C613.366 425.044 615.57 443.68 614.369 451.263C613.726 455.479 613.084 459.714 612.717 463.968V464.051C612.717 464.051 609.107 474.333 606.466 479.917C606.402 480.059 606.331 480.2 606.267 480.335C605.563 480.399 604.87 480.553 604.204 480.791C604.204 480.791 600.664 487.86 597.137 489.03C593.609 490.199 594.779 494.048 602.765 492.635C610.751 491.221 622.811 490.064 622.811 490.064L623.332 482.854L625.786 479.782L625.144 486.973L627.759 486.459L627.412 477.713L631.427 472.688C631.427 472.688 636.278 468.37 629.069 459.874V460.061C628.992 459.938 628.922 459.81 628.838 459.688V459.649C627.643 457.799 626.692 454.348 628.433 448.224C631.582 437.158 633.413 427.114 633.413 427.114C633.413 427.114 640.442 400.207 631.993 387.477H632.365C631.5 385.686 630.888 383.783 630.547 381.822C630.504 381.591 630.466 381.353 630.431 381.109C636.683 380.749 642.819 379.618 647.824 377.176C647.805 377.15 644.792 313.3 642.299 303.134ZM562.929 258.601V258.729L561.644 258.794L562.929 258.601ZM558.522 259.211C558.31 259.258 558.113 259.353 557.943 259.488C557.391 260.27 557.044 261.178 556.935 262.129L554.93 261.679C554.93 261.679 553.523 261.377 551.499 261.036L550.542 260.072C553.176 259.854 555.913 259.533 558.522 259.211Z" fill="url(#paint1_linear)"/>
<path d="M624.848 477.803L624.083 486.909L626.647 486.395L626.262 476.518L624.848 477.803Z" fill="#1D2366"/>
<path d="M566.36 434.568C563.27 443.372 564.144 455.254 564.838 461.024C565.095 463.158 565.332 464.456 565.332 464.456C565.332 464.456 560.713 474.982 560.327 475.38C559.942 475.779 546.732 483.844 546.732 483.844L537.499 489.235C537.499 489.235 528.131 485.129 532.622 483.715C533.54 483.347 534.366 482.783 535.044 482.064C539.542 477.79 545.19 467.168 545.19 467.168C545.19 467.168 545.575 461.776 546.989 459.212C548.402 456.648 547.888 429.703 547.888 429.703L547.997 385.781V380.055L565.57 380.184C565.681 382.127 565.934 384.06 566.328 385.967C566.959 389.258 567.776 392.511 568.776 395.709C571.873 405.727 570.588 422.506 566.36 434.568Z" fill="#FFB0B1"/>
<path opacity="0.1" d="M565.332 464.456C565.332 464.456 560.713 474.982 560.327 475.38C559.942 475.779 546.732 483.844 546.732 483.844L537.499 489.235C537.499 489.235 528.131 485.129 532.622 483.715C533.54 483.347 534.366 482.783 535.044 482.064L535.443 484.872L538.52 484.743L564.863 461.037C565.095 463.158 565.332 464.456 565.332 464.456Z" fill="black"/>
<path d="M565.011 461.635L538.52 485.502L535.443 485.63L534.8 481.132C534.8 481.132 529.416 488.059 517.452 487.674C517.452 487.674 510.269 492.423 520.916 492.68C531.562 492.937 545.157 492.294 545.157 492.294C545.157 492.294 554.654 477.514 562.602 479.442V490.604H565.043V479.339C566.178 478.575 567.147 477.589 567.891 476.44C568.636 475.291 569.14 474.004 569.374 472.656C569.585 471.267 569.436 469.846 568.939 468.532C568.443 467.217 567.617 466.053 566.54 465.15C566.059 464.699 565.676 464.155 565.413 463.55C565.15 462.946 565.013 462.294 565.011 461.635Z" fill="#1D2366"/>
<path d="M627.29 448.294C625.58 454.399 626.512 457.837 627.681 459.681V459.72C629.181 461.997 630.224 464.544 630.753 467.219L630.855 467.798L618.802 485.373L612.261 487.944C612.261 487.944 601.743 484.351 603.664 483.323C604.146 483.073 604.898 481.736 605.759 479.892C608.329 474.333 611.876 464.077 611.876 464.077V463.993C612.248 459.759 612.84 455.537 613.495 451.334C614.671 443.77 612.512 425.205 612.512 425.205C612.512 425.205 611.741 402.63 610.07 397.496C609.316 394.885 608.815 392.208 608.573 389.501C608.226 386.288 608.149 383.641 608.149 383.641C608.149 383.641 615.075 374.002 627.771 384.412C628.787 385.242 629.68 386.211 630.425 387.291C639.195 399.77 632.134 427.262 632.134 427.262C632.134 427.262 630.367 437.261 627.29 448.294Z" fill="#FFB0B1"/>
<path opacity="0.1" d="M630.875 467.798L618.821 485.373L612.281 487.944C612.281 487.944 601.763 484.351 603.684 483.323C604.166 483.073 604.917 481.736 605.778 479.892C610.231 479.853 612.538 484.094 612.538 484.094L618.179 483.195C618.179 483.195 625.619 468.569 627.29 467.675C628.96 466.782 627.547 460.999 627.547 460.999V459.527C627.592 459.579 627.63 459.636 627.682 459.688V459.726C629.181 462.004 630.224 464.55 630.753 467.226L630.875 467.798Z" fill="black"/>
<path d="M612.923 484.473C612.923 484.473 609.71 478.574 603.555 480.753C603.555 480.753 600.092 487.821 596.629 488.965C593.166 490.109 594.322 493.965 602.148 492.558C609.974 491.15 621.77 489.987 621.77 489.987L622.284 482.796L630.239 472.662C630.239 472.662 634.98 468.363 627.926 459.9V461.371C627.926 461.371 629.339 467.155 627.669 468.048C625.998 468.941 618.584 483.574 618.584 483.574L612.923 484.473Z" fill="#1D2366"/>
<path opacity="0.1" d="M565.589 380.171C565.7 382.114 565.953 384.048 566.347 385.954C559.113 384.894 552.398 385.421 547.997 385.768V380.042L565.589 380.171Z" fill="black"/>
<path opacity="0.1" d="M631.138 388.891C631.138 388.891 620.858 389.392 608.599 389.495C608.252 386.282 608.175 383.634 608.175 383.634C608.175 383.634 615.101 373.995 627.797 384.406C628.812 385.236 629.706 386.205 630.451 387.284C630.65 387.832 630.879 388.369 631.138 388.891Z" fill="black"/>
<path d="M631.138 387.734C631.138 387.734 586.111 389.913 572.387 386.063C558.663 382.214 545.061 385.549 543.011 384.656C540.962 383.763 542.626 369.773 544.425 366.309C546.224 362.846 556.093 327.817 556.093 327.817L565.589 278.297L575.593 275.54L576.3 275.341L593.731 270.534L606.504 267.006C606.504 267.006 631.903 366.181 629.725 373.494C628.934 376.294 628.806 379.24 629.352 382.098C629.685 384.05 630.286 385.947 631.138 387.734Z" fill="#1D2366"/>
<path d="M532.487 244.431C532.487 244.431 523.492 254.07 530.303 259.443C537.113 264.815 541.591 259.957 541.591 259.957L532.487 244.431Z" fill="#C7DAF5"/>
<path opacity="0.1" d="M532.487 244.431C532.487 244.431 523.492 254.07 530.303 259.443C537.113 264.815 541.591 259.957 541.591 259.957L532.487 244.431Z" fill="black"/>
<path d="M605.162 181.057C605.162 181.057 604.108 182.059 602.521 183.537C600.259 185.651 596.912 188.742 593.943 191.332C589.831 194.911 586.439 197.54 587.653 195.297C588.867 193.054 588.636 189.147 588.032 185.491C587.987 185.246 587.949 185.002 587.904 184.764C587.404 182.079 586.741 179.427 585.918 176.822C585.918 176.822 592.562 168.236 596.237 164.85C597.606 163.565 598.563 163.038 598.621 163.931C598.685 165.133 599.585 167.787 600.703 170.601C600.735 170.691 600.767 170.775 600.805 170.865C601.551 172.793 602.392 174.772 603.131 176.481C604.262 179.103 605.162 181.057 605.162 181.057Z" fill="#FFB0B1"/>
<path opacity="0.1" d="M600.805 170.865C600.181 174.223 598.666 177.353 596.419 179.925C594.172 182.498 591.276 184.42 588.032 185.491C587.521 182.557 586.815 179.661 585.918 176.822C585.918 176.822 598.428 160.66 598.621 163.931C598.666 165.171 599.642 167.922 600.805 170.865Z" fill="black"/>
<path opacity="0.1" d="M586.786 189.809L588.405 187.528C588.405 187.528 589.478 194.07 593.423 191.184C597.368 188.299 597.561 212.898 597.561 212.898L593.326 276.215L562.73 274.383L563.597 243.789L567.061 228.366L575.625 205.945L580.72 198.536L586.786 189.809Z" fill="black"/>
<path d="M597.561 213.29L593.706 270.541L593.301 276.607L576.242 275.585L575.6 275.547L562.749 274.776L563.617 244.174L567.08 228.751L575.645 206.331L580.74 198.921L586.805 190.162L588.424 187.888C588.424 187.888 589.497 194.429 593.442 191.544L593.526 191.486C597.381 189.044 597.561 213.29 597.561 213.29Z" fill="#1D2366"/>
<path d="M567.51 223.392C567.51 223.392 565.975 226.605 562.891 226.085C559.807 225.564 559.813 237.652 559.813 237.652C559.813 237.652 557.764 239.58 556.35 237.909C554.937 236.238 551.21 241.887 551.21 241.887L527.861 242.915C527.861 242.915 538.25 247.664 536.214 262.032C536.214 262.032 571.488 259.848 572.644 256.512C573.801 253.177 567.51 223.392 567.51 223.392Z" fill="white"/>
<path opacity="0.03" d="M567.51 223.392C567.51 223.392 565.975 226.605 562.891 226.085C559.807 225.564 559.813 237.652 559.813 237.652C559.813 237.652 557.764 239.58 556.35 237.909C554.937 236.238 551.21 241.887 551.21 241.887L527.861 242.915C527.861 242.915 538.25 247.664 536.214 262.032C536.214 262.032 571.488 259.848 572.644 256.512C573.801 253.177 567.51 223.392 567.51 223.392Z" fill="black"/>
<path d="M499.655 250.465L505.81 255.722L556.478 266.37L550.195 259.957L499.655 250.465Z" fill="white"/>
<path d="M586.882 191.833C586.04 193.118 583.631 199.699 581.62 205.444C579.943 210.231 578.542 214.44 578.542 214.44C578.542 214.44 575.272 235.737 573.601 239.586C571.931 243.435 572.837 258.447 572.837 258.447L566.611 295.519C566.611 295.519 563.79 314.637 559.434 326.056C555.136 337.295 550.349 342.565 550.201 342.732C552.129 340.123 562.634 288.752 562.634 288.752L566.103 223.964C566.103 223.964 566.611 217.808 567.125 212.545C567.639 207.282 578.048 200.097 578.048 200.097L588.084 185.825C589.092 187.174 588.418 189.526 586.882 191.833Z" fill="white"/>
<path d="M560.713 275.097C560.713 275.097 545.935 274.454 538.777 265.856C531.62 257.258 555.322 262.424 555.322 262.424L561.484 263.838L560.713 275.097Z" fill="#FFB0B1"/>
<path opacity="0.1" d="M629.725 373.5C628.934 376.301 628.806 379.247 629.352 382.105C613.231 383.249 595.987 378.892 595.987 378.892C592.774 381.848 584.312 386.205 584.312 386.205L579.699 329.012C576.75 321.301 575.593 280.9 575.593 280.9C575.593 280.9 575.857 278.785 576.236 275.617C576.236 275.54 576.236 275.457 576.268 275.38C577.418 266.531 579.699 249.919 580.817 247.676C582.359 244.592 576.075 236.386 576.075 236.386L578.934 211.998L579.281 209.055C585.308 206.363 589.928 197.765 589.928 197.765L593.474 191.55C597.329 189.076 597.529 213.322 597.529 213.322L593.673 270.573L606.447 267.045C606.447 267.045 631.903 366.187 629.725 373.5Z" fill="black"/>
<path d="M646.269 377.452C628.697 386.179 596.757 378.095 596.757 378.095C593.545 381.051 585.083 385.408 585.083 385.408L580.463 328.215C577.521 320.504 576.364 280.103 576.364 280.103C576.364 280.103 580.078 249.958 581.62 246.88C582.07 245.98 581.851 244.643 581.318 243.204C578.696 236.352 577.732 228.978 578.504 221.683L579.737 211.202L580.078 208.265C586.111 205.566 590.731 196.968 590.731 196.968L593.943 191.338L599.854 180.967L602.656 176.057L603.131 176.488L606.761 179.778C606.761 179.778 608.303 181.063 610.616 182.991C615.647 187.232 624.34 194.699 628.825 199.268C632.77 203.291 634.017 218.939 634.376 230.718C634.614 238.474 634.473 244.553 634.473 244.553C630.496 251.102 640.898 303.674 640.898 303.674C643.32 313.834 646.269 377.452 646.269 377.452Z" fill="white"/>
<path opacity="0.03" d="M612.538 196.839C612.538 196.839 600.478 219.8 601.878 228.527C603.279 237.253 607.263 247.13 605.341 249.437C604.681 250.311 603.828 251.021 602.848 251.51C601.869 251.999 600.789 252.256 599.694 252.258C597.766 252.387 592.626 255.979 592.626 256.365C592.626 256.75 587.878 256.75 583.631 258.549C579.384 260.349 573.113 261.371 573.113 261.371C573.113 261.371 560.905 260.985 559.768 262.142C558.631 263.298 557.461 270.219 559.897 275.739C562.332 281.259 565.037 285.379 567.08 286.131C569.123 286.882 582.089 282.538 592.607 281.51C603.125 280.482 614.542 272.147 614.542 272.147C614.542 272.147 627.116 267.649 629.32 260.085C631.524 252.522 626.628 210.951 626.628 210.951C626.628 210.951 622.927 191.576 612.538 196.839Z" fill="black"/>
<path opacity="0.03" d="M610.996 194.911C610.996 194.911 598.936 217.878 600.349 226.599C601.763 235.319 605.733 245.202 603.806 247.516C603.148 248.391 602.296 249.101 601.317 249.591C600.338 250.08 599.259 250.336 598.165 250.337C596.237 250.465 591.097 254.058 591.097 254.443C591.097 254.829 586.349 254.829 582.102 256.622C577.855 258.415 571.584 259.443 571.584 259.443C571.584 259.443 559.376 259.057 558.245 260.214C557.115 261.371 555.932 268.298 558.374 273.812C560.815 279.325 563.514 283.451 565.557 284.203C567.6 284.955 580.566 280.61 591.084 279.589C601.602 278.567 613.019 270.219 613.019 270.219C613.019 270.219 625.587 265.721 627.765 258.164C629.943 250.607 625.073 209.023 625.073 209.023C625.073 209.023 621.385 189.655 610.996 194.911Z" fill="black"/>
<path d="M612.158 195.683C612.158 195.683 600.099 218.65 601.512 227.37C602.926 236.09 606.896 245.973 604.975 248.28C604.318 249.158 603.465 249.87 602.485 250.36C601.505 250.851 600.424 251.107 599.328 251.108C597.4 251.237 592.26 254.829 592.26 255.208C592.26 255.587 587.518 255.593 583.265 257.393C579.011 259.192 572.747 260.214 572.747 260.214C572.747 260.214 560.539 259.828 559.402 260.985C558.265 262.142 557.095 269.069 559.53 274.583C561.966 280.096 564.67 284.222 566.714 284.974C568.757 285.726 581.723 281.382 592.241 280.353C602.759 279.325 614.176 270.99 614.176 270.99C614.176 270.99 626.75 266.492 628.954 258.929C631.157 251.365 626.294 209.794 626.294 209.794C626.294 209.794 622.541 190.452 612.158 195.683Z" fill="white"/>
<path opacity="0.1" d="M611.895 257.284C611.895 257.284 602.257 255.356 605.611 258.569C608.965 261.782 608.946 264.596 613.052 264.468C617.157 264.339 611.895 257.284 611.895 257.284Z" fill="black"/>
<path opacity="0.1" d="M628.183 326.416C628.183 326.416 623.827 329.366 632.16 336.164C640.493 342.963 628.183 326.416 628.183 326.416Z" fill="black"/>
<path opacity="0.1" d="M619.869 350.662C619.869 351.047 618.327 364.799 624.096 368.237C629.866 371.675 619.869 350.662 619.869 350.662Z" fill="black"/>
<path d="M528.259 242.883C523.608 243.043 513.559 244.463 518.769 254.186C523.376 262.791 531.119 257.039 535.475 252.676C534.412 248.608 531.83 245.103 528.259 242.883Z" fill="#FFB0B1"/>
<path d="M535.533 252.599L535.725 252.4L535.533 252.599Z" fill="#FFB0B1"/>
<path opacity="0.1" d="M610.616 183.383C605.682 186.757 601.544 189.603 600.735 190.195C598.524 191.833 594.309 201.453 591.592 206.363C589.426 210.315 582.391 211.33 579.737 211.581L580.078 208.644C586.111 205.945 590.731 197.347 590.731 197.347L602.656 176.436L606.761 180.17C606.761 180.17 608.303 181.455 610.616 183.383Z" fill="black"/>
<path d="M610.616 182.997C605.682 186.371 601.544 189.218 600.735 189.815C598.524 191.448 594.309 201.068 591.592 205.977C589.426 209.929 582.391 210.945 579.737 211.195L580.078 208.258C586.111 205.56 590.731 196.961 590.731 196.961L602.656 176.051L606.761 179.771C606.761 179.771 608.303 181.044 610.616 182.997Z" fill="#DCE7FF"/>
<path d="M601.12 166.624C601.123 170.481 599.953 174.248 597.766 177.426C595.183 181.183 591.34 183.889 586.932 185.054C582.525 186.219 577.846 185.765 573.745 183.775C569.643 181.785 566.391 178.39 564.578 174.207C562.765 170.023 562.512 165.329 563.864 160.974C565.216 156.62 568.083 152.895 571.947 150.474C575.81 148.054 580.413 147.099 584.92 147.782C589.427 148.466 593.54 150.742 596.512 154.199C599.484 157.656 601.119 162.064 601.12 166.624Z" fill="#FFB0B1"/>
<path opacity="0.1" d="M634.376 230.724C631.767 229.119 629.642 226.836 628.228 224.118C627.155 221.998 626.441 219.549 624.61 218.045C622.959 216.696 620.755 216.368 618.699 215.764C611.94 213.766 606.273 207.597 606.061 200.554C605.958 197.238 606.993 193.928 606.524 190.644C606.257 188.786 605.518 187.027 604.378 185.536C603.811 184.822 603.191 184.154 602.521 183.537C601.621 182.689 600.677 181.866 599.854 180.967C599.336 180.41 598.884 179.795 598.505 179.135C598.2 178.595 597.952 178.024 597.766 177.432C596.481 173.499 597.651 168.834 596.237 164.856L596.16 164.638C595.627 163.224 594.541 161.81 593.031 161.701C591.521 161.592 590.23 162.845 588.79 163.404C585.777 164.574 582.526 162.581 580.014 160.551C577.501 158.52 574.668 156.2 571.475 156.65C569.361 156.952 567.69 158.392 565.744 159.137C565.304 159.307 564.85 159.438 564.388 159.529C566.035 155.42 569.062 152.012 572.949 149.892C576.835 147.773 581.339 147.073 585.685 147.913C590.031 148.753 593.949 151.081 596.766 154.497C599.583 157.912 601.122 162.202 601.12 166.63C601.122 167.967 600.982 169.3 600.702 170.608C600.735 170.698 600.767 170.781 600.805 170.871C601.551 172.799 602.392 174.778 603.131 176.488L606.761 179.778C606.761 179.778 608.303 181.063 610.616 182.991C615.647 187.232 624.34 194.699 628.825 199.268C632.77 203.304 634.004 218.945 634.376 230.724Z" fill="black"/>
<path d="M565.519 147.396C566.437 145.526 566.894 143.432 567.992 141.658C569.605 139.087 572.419 137.442 575.311 136.446C582.86 133.844 598.814 130.065 603.581 136.446C604.519 137.732 605.297 139.158 606.594 140.045C607.584 140.72 608.779 141.009 609.865 141.517C612.904 142.943 614.844 146.053 615.879 149.228C616.913 152.402 617.222 155.808 617.98 159.079C618.95 163.275 620.653 167.253 622.349 171.205C624.347 175.871 626.467 180.71 630.322 184.006C635.584 188.505 636.747 194.873 641.63 199.808C647.413 205.669 647.227 215.34 644.245 223.019C643.854 224.028 643.41 225.082 643.564 226.155C643.719 227.228 644.515 228.205 645.267 229.06L648.428 232.626C640.949 234.432 632.488 230.525 629.005 223.668C627.932 221.548 627.219 219.106 625.381 217.596C623.737 216.246 621.526 215.925 619.477 215.321C612.718 213.316 607.051 207.14 606.839 200.097C606.736 196.788 607.77 193.478 607.301 190.201C607.04 188.33 606.299 186.559 605.149 185.06C603.382 182.753 600.715 181.204 599.276 178.634C596.841 174.335 598.692 168.751 596.937 164.137C596.398 162.723 595.318 161.309 593.808 161.2C592.299 161.091 591.007 162.344 589.561 162.903C586.555 164.072 583.303 162.087 580.791 160.05C578.279 158.012 575.445 155.699 572.246 156.155C570.132 156.451 568.468 157.89 566.521 158.642C565.082 159.195 562.165 159.69 560.905 158.475C558.245 156.027 564.407 149.684 565.519 147.396Z" fill="#591D4B"/>
<path opacity="0.1" d="M630.791 221.548C629.712 219.427 629.005 216.985 627.168 215.481C625.523 214.132 623.312 213.804 621.256 213.2C614.504 211.202 608.837 205.026 608.618 197.983C608.515 194.674 609.55 191.358 609.087 188.08C608.818 186.221 608.077 184.463 606.935 182.972C605.162 180.665 602.495 179.116 601.062 176.545C598.627 172.253 600.478 166.668 598.717 162.048C598.184 160.641 597.098 159.227 595.595 159.111C594.091 158.996 592.787 160.262 591.348 160.821C588.341 161.99 585.083 159.998 582.577 157.967C580.072 155.937 577.225 153.617 574.032 154.067C571.918 154.369 570.248 155.808 568.307 156.554C566.868 157.106 563.945 157.608 562.685 156.393C560.038 153.823 566.2 147.493 567.305 145.218C568.224 143.342 568.68 141.253 569.785 139.479C569.843 139.383 569.907 139.287 569.971 139.19C569.145 139.875 568.431 140.686 567.857 141.594C566.759 143.367 566.303 145.449 565.384 147.332C564.272 149.607 558.111 155.956 560.764 158.507C562.049 159.728 564.94 159.227 566.38 158.674C568.307 157.923 569.991 156.483 572.104 156.187C575.317 155.731 578.144 158.051 580.65 160.082C583.156 162.112 586.432 164.104 589.426 162.935C590.866 162.376 592.125 161.116 593.667 161.232C595.209 161.348 596.237 162.755 596.796 164.169C598.55 168.783 596.7 174.367 599.135 178.666C600.574 181.192 603.24 182.772 605.007 185.092C606.157 186.591 606.899 188.362 607.16 190.233C607.629 193.51 606.594 196.82 606.697 200.129C606.909 207.198 612.576 213.348 619.335 215.353C621.372 215.957 623.595 216.278 625.24 217.628C627.084 219.138 627.81 221.58 628.864 223.701C632.346 230.557 640.808 234.464 648.287 232.659L646.796 230.975C640.313 231.071 633.753 227.383 630.791 221.548Z" fill="black"/>
<path opacity="0.1" d="M586.497 192.219C585.655 193.504 583.245 200.084 581.234 205.829C579.352 205.097 577.643 200.425 577.643 200.425L587.679 186.146C588.707 187.56 588.032 189.905 586.497 192.219Z" fill="black"/>
<path d="M586.882 191.833C586.04 193.118 583.631 199.699 581.62 205.444C579.737 204.718 578.028 200.039 578.028 200.039L588.064 185.767C589.092 187.174 588.418 189.526 586.882 191.833Z" fill="#DCE7FF"/>
<path d="M528.529 257.483L522.965 239.933C522.899 239.727 522.875 239.511 522.893 239.296C522.911 239.081 522.971 238.872 523.07 238.68C523.169 238.488 523.305 238.318 523.47 238.179C523.635 238.04 523.826 237.935 524.032 237.87C524.446 237.741 524.894 237.78 525.279 237.98C525.664 238.18 525.955 238.524 526.088 238.937L531.652 256.467L531.099 260.137L528.529 257.483Z" fill="#BE8B87"/>
<path opacity="0.1" d="M523.492 238.391C523.907 238.259 524.357 238.298 524.743 238.498C525.13 238.698 525.422 239.043 525.554 239.457L531.119 256.988L530.701 259.738L531.106 260.162L531.658 256.493L526.062 238.963C525.929 238.55 525.639 238.206 525.253 238.006C524.868 237.806 524.42 237.767 524.006 237.896C523.657 238.009 523.357 238.235 523.151 238.538C523.261 238.48 523.375 238.43 523.492 238.391Z" fill="white"/>
<path d="M528.529 257.483L531.652 256.493L531.196 259.501L531.099 260.162L530.187 259.211L528.529 257.483Z" fill="#EFC8C4"/>
<path d="M530.187 259.211C530.241 259.143 530.309 259.086 530.386 259.044C530.431 259.016 530.484 259.001 530.537 259.001C530.591 259.001 530.643 259.016 530.688 259.044C530.732 259.097 530.769 259.155 530.797 259.218C530.84 259.289 530.898 259.349 530.967 259.395C531.036 259.44 531.114 259.47 531.196 259.481L531.099 260.124L530.187 259.211Z" fill="#727A9C"/>
<path d="M522.933 246.166C522.933 246.166 534.093 246.102 531.466 250.851C528.838 255.6 524.732 256.172 524.732 256.172L522.933 246.166Z" fill="#FFB0B1"/>
<path d="M453.523 33.0432H453.041C433.868 33.0432 416.912 43.1901 407.159 58.163C397.406 43.1901 380.45 33.0432 361.277 33.0432H360.795C346.407 33.1804 332.654 38.9913 322.525 49.2132C312.396 59.4351 306.71 73.2419 306.703 87.6333C306.703 105.504 314.528 130.862 329.788 151.728C358.862 191.486 407.159 226.271 407.159 226.271C407.159 226.271 455.457 191.493 484.524 151.728C499.79 130.862 507.609 105.504 507.609 87.6333C507.601 73.243 501.916 59.4371 491.789 49.2154C481.661 38.9937 467.91 33.1821 453.523 33.0432ZM446.628 154.787C444.445 154.778 442.315 154.11 440.518 152.869C438.721 151.628 437.342 149.873 436.56 147.833H425.098C424.343 147.829 423.609 147.588 422.997 147.146C422.385 146.704 421.927 146.081 421.686 145.366L418.165 134.756L407.024 173.692C406.807 174.442 406.353 175.101 405.73 175.57C405.106 176.039 404.348 176.294 403.567 176.295H403.343C402.528 176.255 401.753 175.938 401.144 175.395C400.536 174.853 400.133 174.118 400.001 173.313L388.52 104.245L380.129 145.115C379.936 145.892 379.489 146.581 378.859 147.074C378.229 147.567 377.452 147.834 376.653 147.833H360.506C360.022 147.854 359.539 147.776 359.086 147.605C358.633 147.434 358.219 147.173 357.869 146.838C357.519 146.502 357.241 146.1 357.051 145.654C356.861 145.208 356.763 144.729 356.763 144.244C356.763 143.76 356.861 143.28 357.051 142.835C357.241 142.389 357.519 141.986 357.869 141.651C358.219 141.316 358.633 141.055 359.086 140.884C359.539 140.713 360.022 140.635 360.506 140.655H373.826L385.712 85.7055C385.907 84.8931 386.378 84.1736 387.045 83.6702C387.712 83.1668 388.533 82.9107 389.367 82.9456C390.202 82.9805 390.999 83.3043 391.621 83.8616C392.243 84.419 392.653 85.1752 392.78 86.0011L404.505 156.457L414.49 121.621C414.698 120.888 415.138 120.241 415.743 119.777C416.349 119.314 417.088 119.059 417.85 119.051H417.921C418.676 119.051 419.412 119.29 420.023 119.733C420.635 120.176 421.091 120.801 421.326 121.518L427.694 140.675H436.419C437.039 138.79 438.168 137.113 439.681 135.829C441.195 134.545 443.033 133.704 444.994 133.4C446.954 133.095 448.961 133.338 450.792 134.101C452.624 134.865 454.208 136.12 455.372 137.728C456.535 139.336 457.231 141.234 457.384 143.212C457.537 145.191 457.14 147.173 456.238 148.941C455.335 150.708 453.962 152.192 452.27 153.228C450.578 154.264 448.632 154.812 446.648 154.812L446.628 154.787Z" fill="#E74C3C"/>
</g>
<defs>
<linearGradient id="paint0_linear" x1="228.946" y1="497.943" x2="228.946" y2="102.516" gradientUnits="userSpaceOnUse">
<stop stop-color="#808080" stop-opacity="0.25"/>
<stop offset="0.54" stop-color="#808080" stop-opacity="0.12"/>
<stop offset="1" stop-color="#808080" stop-opacity="0.1"/>
</linearGradient>
<linearGradient id="paint1_linear" x1="143418" y1="298354" x2="143418" y2="95378.7" gradientUnits="userSpaceOnUse">
<stop stop-color="#808080" stop-opacity="0.25"/>
<stop offset="0.54" stop-color="#808080" stop-opacity="0.12"/>
<stop offset="1" stop-color="#808080" stop-opacity="0.1"/>
</linearGradient>
<clipPath id="clip0">
<rect width="710" height="503" fill="white"/>
</clipPath>
</defs>
</svg>
